<svg width="142" height="369" xmlns="http://www.w3.org/2000/svg" xmlns:xlink="http://www.w3.org/1999/xlink"><defs><path id="b" d="M74 130.889l.938-6.889L96 138.644V146l-11.76-8.077z"/><filter x="-13.6%" y="-9.1%" width="136.4%" height="136.4%" filterUnits="objectBoundingBox" id="a"><feOffset dx="1" dy="2" in="SourceAlpha" result="shadowOffsetOuter1"/><feGaussianBlur stdDeviation="1" in="shadowOffsetOuter1" result="shadowBlurOuter1"/><feColorMatrix values="0 0 0 0 0 0 0 0 0 0 0 0 0 0 0 0 0 0 0.5 0" in="shadowBlurOuter1"/></filter><path id="d" d="M48 131.364l.32-6.364L70 139.455V147l-11.837-8.284z"/><filter x="-13.6%" y="-9.1%" width="136.4%" height="136.4%" filterUnits="objectBoundingBox" id="c"><feOffset dx="1" dy="2" in="SourceAlpha" result="shadowOffsetOuter1"/><feGaussianBlur stdDeviation="1" in="shadowOffsetOuter1" result="shadowBlurOuter1"/><feColorMatrix values="0 0 0 0 0 0 0 0 0 0 0 0 0 0 0 0 0 0 0.5 0" in="shadowBlurOuter1"/></filter><path d="M72 144v79" id="f"/><filter x="-75%" y="-3.2%" width="350%" height="106.3%" filterUnits="objectBoundingBox" id="e"><feMorphology radius=".5" operator="dilate" in="SourceAlpha" result="shadowSpreadOuter1"/><feOffset dx="1" in="shadowSpreadOuter1" result="shadowOffsetOuter1"/><feMorphology radius="1" in="SourceAlpha" result="shadowInner"/><feOffset dx="1" in="shadowInner" result="shadowInner"/><feComposite in="shadowOffsetOuter1" in2="shadowInner" operator="out" result="shadowOffsetOuter1"/><feGaussianBlur stdDeviation=".5" in="shadowOffsetOuter1" result="shadowBlurOuter1"/><feColorMatrix values="0 0 0 0 0 0 0 0 0 0 0 0 0 0 0 0 0 0 0.5 0" in="shadowBlurOuter1"/></filter><circle id="h" cx="72" cy="155" r="2"/><filter x="-87.5%" y="-87.5%" width="275%" height="275%" filterUnits="objectBoundingBox" id="g"><feMorphology radius=".5" operator="dilate" in="SourceAlpha" result="shadowSpreadOuter1"/><feOffset in="shadowSpreadOuter1" result="shadowOffsetOuter1"/><feGaussianBlur stdDeviation="1" in="shadowOffsetOuter1" result="shadowBlurOuter1"/><feComposite in="shadowBlurOuter1" in2="SourceAlpha" operator="out" result="shadowBlurOuter1"/><feColorMatrix values="0 0 0 0 0 0 0 0 0 0 0 0 0 0 0 0 0 0 0.5 0" in="shadowBlurOuter1"/></filter><circle id="j" cx="72" cy="175" r="2"/><filter x="-87.5%" y="-87.5%" width="275%" height="275%" filterUnits="objectBoundingBox" id="i"><feMorphology radius=".5" operator="dilate" in="SourceAlpha" result="shadowSpreadOuter1"/><feOffset in="shadowSpreadOuter1" result="shadowOffsetOuter1"/><feGaussianBlur stdDeviation="1" in="shadowOffsetOuter1" result="shadowBlurOuter1"/><feComposite in="shadowBlurOuter1" in2="SourceAlpha" operator="out" result="shadowBlurOuter1"/><feColorMatrix values="0 0 0 0 0 0 0 0 0 0 0 0 0 0 0 0 0 0 0.5 0" in="shadowBlurOuter1"/></filter><circle id="l" cx="72" cy="195" r="2"/><filter x="-87.5%" y="-87.5%" width="275%" height="275%" filterUnits="objectBoundingBox" id="k"><feMorphology radius=".5" operator="dilate" in="SourceAlpha" result="shadowSpreadOuter1"/><feOffset in="shadowSpreadOuter1" result="shadowOffsetOuter1"/><feGaussianBlur stdDeviation="1" in="shadowOffsetOuter1" result="shadowBlurOuter1"/><feComposite in="shadowBlurOuter1" in2="SourceAlpha" operator="out" result="shadowBlurOuter1"/><feColorMatrix values="0 0 0 0 0 0 0 0 0 0 0 0 0 0 0 0 0 0 0.5 0" in="shadowBlurOuter1"/></filter><circle id="n" cx="72" cy="215" r="2"/><filter x="-87.5%" y="-87.5%" width="275%" height="275%" filterUnits="objectBoundingBox" id="m"><feMorphology radius=".5" operator="dilate" in="SourceAlpha" result="shadowSpreadOuter1"/><feOffset in="shadowSpreadOuter1" result="shadowOffsetOuter1"/><feGaussianBlur stdDeviation="1" in="shadowOffsetOuter1" result="shadowBlurOuter1"/><feComposite in="shadowBlurOuter1" in2="SourceAlpha" operator="out" result="shadowBlurOuter1"/><feColorMatrix values="0 0 0 0 0 0 0 0 0 0 0 0 0 0 0 0 0 0 0.5 0" in="shadowBlurOuter1"/></filter></defs><g fill="none" fill-rule="evenodd"><ellipse fill="#3F6470" cx="70.5" cy="351.5" rx="61.5" ry="15.5"/><path fill="#F7C98B" d="M57 126h31v20H57zM7 202.992C10.256 216.82 19.182 229.157 33.778 240c3.93-3.904 5.642-9.371 5.135-16.401-7.745-5.547-13.284-13.747-16.618-24.599L7 202.992zm130-.091c-3.325 13.41-12.422 25.442-27.293 36.099-4.266-3.78-6.14-9.126-5.623-16.035.45-.283.786-.497 1.007-.642 8.061-5.305 13.723-13.08 16.985-23.323L137 202.901z"/><path d="M41.409 332l3.076-78.843c-8.001-7.585-11.423-12.288-10.266-14.11.756-1.19 3.11-3.442 4.306-7.639.424-1.487.663-4.29.717-8.408h64.794c1.007 7.995 2.853 13.343 5.537 16.046 1.295 1.304-.532 4.373-3.134 7.627-1.118 1.397-3.367 3.559-6.75 6.484L102.546 332H78.083l2.607-73.674H63.911L65.735 332H41.41z" fill="#50A7D3"/><path d="M71.386 224l-32.084-.509-5.981-55.523c-6.726 2.783-10.089 13.035-10.089 30.756 0 .32-5.593 1.808-16.778 4.466C3.25 174.252 17 150.189 47.706 131l17.535 12.512h12.722L95.63 131c30.758 17.705 44.77 41.85 42.035 72.434l-15.962-4.152c-.574-16.656-3.68-27.094-9.317-31.314l-8.146 55.523-32.854.509z" fill="#49B1EA"/><g transform="matrix(-1 0 0 1 170 0)"><use fill="#000" filter="url(#a)" xlink:href="#b"/><use fill="#49B1EA" xlink:href="#b"/></g><use fill="#000" filter="url(#c)" xlink:href="#d"/><use fill="#49B1EA" xlink:href="#d"/><path d="M67.396 352.5H30.283" stroke="#EEF8FF" stroke-linecap="square"/><path d="M32.229 349.67c.69-9.466 3.723-15.6 9.1-18.405h24.473c2.4 6.922 3.057 13.056 1.967 18.404H32.23z" fill="#FFF"/><path d="M67.814 349.055c.183 2.067.183 3.1 0 3.1H29.763c.352-2.066 1.149-3.1 2.39-3.1h35.66z" fill="#D8D8D8"/><path d="M53 337.575c-2.19-.908-3.995-1.421-5.416-1.54-1.422-.118-3.617.062-6.584.54m12-2c-2.19-.908-3.995-1.421-5.416-1.54-1.422-.118-3.617.062-6.584.54" stroke="#EAEFF1" stroke-linecap="square"/><path d="M76.5 352.5h37" stroke="#EEF8FF" stroke-linecap="square"/><path d="M111.771 349.67c-.69-9.466-3.723-15.6-9.1-18.405H78.197c-2.4 6.922-3.057 13.056-1.967 18.404h35.54z" fill="#FFF"/><path d="M76.09 349.055c-.4 2-.4 3 0 3h37.903c-.277-2-1.031-3-2.263-3H76.09z" fill="#D8D8D8"/><path d="M91 337.575c2.19-.908 3.995-1.421 5.416-1.54 1.422-.118 3.617.062 6.584.54m-12-2c2.19-.908 3.995-1.421 5.416-1.54 1.422-.118 3.617.062 6.584.54" stroke="#EAEFF1" stroke-linecap="square"/><g stroke-linecap="square"><use fill="#000" filter="url(#e)" xlink:href="#f"/><use stroke="#476E7F" xlink:href="#f"/></g><use fill="#000" filter="url(#g)" xlink:href="#h"/><use stroke="#476E7F" fill="#80C1DD" xlink:href="#h"/><use fill="#000" filter="url(#i)" xlink:href="#j"/><use stroke="#476E7F" fill="#80C1DD" xlink:href="#j"/><use fill="#000" filter="url(#k)" xlink:href="#l"/><use stroke="#476E7F" fill="#80C1DD" xlink:href="#l"/><use fill="#000" filter="url(#m)" xlink:href="#n"/><use stroke="#476E7F" fill="#80C1DD" xlink:href="#n"/><path fill="#593626" d="M39.146 223.098l64.301-.098.553 4H39z"/><g transform="translate(-24 -60)"><path d="M64.521 176.971c-13.407-19.837-9.036-14.609-15.334-28.505-10.922-6.574-13.846-15.223-8.774-25.945C38.24 82.662 56.603 62.733 95.5 62.733c38.897 0 57.647 19.93 56.249 59.788 4.678 12.545 2.065 21.194-7.84 25.945-7.097 12.344-12.81 21.846-17.143 28.505-13.599 20.903-48.838 19.837-62.245 0z" fill="#F7C98B"/><g fill-rule="nonzero"><path d="M107.732 194.49h-24.77c-4.93 0-8.962-4.027-8.962-8.95v-17.59c0-4.922 4.032-8.95 8.962-8.95h24.77c4.93 0 8.962 4.028 8.962 8.95v17.59c0 4.923-4.033 8.95-8.962 8.95" fill="#3B3A37"/><path d="M105.713 180.084H84.947c-2.17 0-3.947-1.771-3.947-3.939v-4.204A3.955 3.955 0 0 1 84.947 168h20.766a3.955 3.955 0 0 1 3.947 3.94v4.205a3.954 3.954 0 0 1-3.947 3.94" fill="#F7C88B"/><path d="M102.538 184.056H88.034A2.039 2.039 0 0 1 86 182.025v-3.994c0-1.117.916-2.031 2.034-2.031h14.504c1.12 0 2.035.914 2.035 2.031v3.994a2.039 2.039 0 0 1-2.035 2.031" fill="#3B3A37"/></g><path d="M85 170h22c-2.514 3.363-6.355 5.03-11.522 5-5.167-.03-8.66-1.696-10.478-5z" fill="#FFF"/><path d="M57.323 117.288l-16.058 4.03m92.725-4.228L152 119" stroke="#6AA6B9" stroke-width="2" stroke-linecap="square"/><path d="M110.499 109.812c-2.639-3.59 5.76-6.665 11.793-5.597 6.036 1.066 10.971 3.996 10.697 6.13-.274 2.132-7.314-1.599-12.342-1.865-2.793-.148-8.777 3.197-10.148 1.332m-27.998 0c2.639-3.59-5.76-6.665-11.793-5.597-6.034 1.066-10.971 3.996-10.697 6.13.274 2.132 7.314-1.599 12.342-1.865 2.793-.148 8.777 3.197 10.148 1.332" fill="#3B3A37" fill-rule="nonzero"/><path d="M78 126.999c0 4.418-2.463 8.001-5.501 8.001-3.038 0-5.499-3.583-5.499-8.001 0-4.418 2.461-7.999 5.499-7.999S78 122.58 78 126.999" fill="#46271B" fill-rule="nonzero"/><path d="M76 130a1 1 0 1 1-1.998.002A1 1 0 0 1 76 130" fill="#FFFFFE" fill-rule="nonzero"/><path d="M125 126.999c0 4.418-2.461 8.001-5.499 8.001S114 131.417 114 126.999c0-4.418 2.463-7.999 5.501-7.999 3.038 0 5.499 3.58 5.499 7.999" fill="#46271B" fill-rule="nonzero"/><path d="M123 130a1 1 0 1 1-2 0 1 1 0 0 1 2 0m-50-6.999a2 2 0 1 1-4-.002 2 2 0 0 1 4 .002m47 0a2 2 0 1 1-3.999 0 2 2 0 0 1 3.999 0" fill="#FFFFFE" fill-rule="nonzero"/><rect stroke="#6AA6B9" stroke-width="2" x="103" y="117" width="33" height="20" rx="3"/><rect stroke="#6AA6B9" stroke-width="2" x="56" y="117" width="33" height="20" rx="3"/><path d="M87 117h18" stroke="#6AA6B9" stroke-width="2" stroke-linecap="square"/><path d="M95.404 144c-4.35 0-9.669 16 .152 16 9.82 0 4.2-16-.152-16" fill="#EFA369" fill-rule="nonzero"/></g></g></svg>