<?xml version="1.0" encoding="UTF-8"?>
<svg width="142px" height="369px" viewBox="0 0 142 369" version="1.1" xmlns="http://www.w3.org/2000/svg" xmlns:xlink="http://www.w3.org/1999/xlink">
    <!-- Generator: Sketch 48.2 (47327) - http://www.bohemiancoding.com/sketch -->
    <title>bastoche</title>
    <desc>Created with Sketch.</desc>
    <defs>
        <polygon id="path-1" points="74 130.888557 74.9375003 124 96 138.643788 96 146 84.2408008 137.922797"></polygon>
        <filter x="-13.6%" y="-9.1%" width="136.4%" height="136.4%" filterUnits="objectBoundingBox" id="filter-2">
            <feOffset dx="1" dy="2" in="SourceAlpha" result="shadowOffsetOuter1"></feOffset>
            <feGaussianBlur stdDeviation="1" in="shadowOffsetOuter1" result="shadowBlurOuter1"></feGaussianBlur>
            <feColorMatrix values="0 0 0 0 0   0 0 0 0 0   0 0 0 0 0  0 0 0 0.5 0" type="matrix" in="shadowBlurOuter1"></feColorMatrix>
        </filter>
        <polygon id="path-3" points="48 131.36353 48.3207291 125 70 139.455244 70 147 58.1629824 138.715773"></polygon>
        <filter x="-13.6%" y="-9.1%" width="136.4%" height="136.4%" filterUnits="objectBoundingBox" id="filter-4">
            <feOffset dx="1" dy="2" in="SourceAlpha" result="shadowOffsetOuter1"></feOffset>
            <feGaussianBlur stdDeviation="1" in="shadowOffsetOuter1" result="shadowBlurOuter1"></feGaussianBlur>
            <feColorMatrix values="0 0 0 0 0   0 0 0 0 0   0 0 0 0 0  0 0 0 0.5 0" type="matrix" in="shadowBlurOuter1"></feColorMatrix>
        </filter>
        <path d="M72,144 L72,223" id="path-5"></path>
        <filter x="-75.0%" y="-3.2%" width="350.0%" height="106.3%" filterUnits="objectBoundingBox" id="filter-6">
            <feMorphology radius="0.5" operator="dilate" in="SourceAlpha" result="shadowSpreadOuter1"></feMorphology>
            <feOffset dx="1" dy="0" in="shadowSpreadOuter1" result="shadowOffsetOuter1"></feOffset>
            <feMorphology radius="1" operator="erode" in="SourceAlpha" result="shadowInner"></feMorphology>
            <feOffset dx="1" dy="0" in="shadowInner" result="shadowInner"></feOffset>
            <feComposite in="shadowOffsetOuter1" in2="shadowInner" operator="out" result="shadowOffsetOuter1"></feComposite>
            <feGaussianBlur stdDeviation="0.5" in="shadowOffsetOuter1" result="shadowBlurOuter1"></feGaussianBlur>
            <feColorMatrix values="0 0 0 0 0   0 0 0 0 0   0 0 0 0 0  0 0 0 0.5 0" type="matrix" in="shadowBlurOuter1"></feColorMatrix>
        </filter>
        <circle id="path-7" cx="72" cy="155" r="2"></circle>
        <filter x="-87.5%" y="-87.5%" width="275.0%" height="275.0%" filterUnits="objectBoundingBox" id="filter-8">
            <feMorphology radius="0.5" operator="dilate" in="SourceAlpha" result="shadowSpreadOuter1"></feMorphology>
            <feOffset dx="0" dy="0" in="shadowSpreadOuter1" result="shadowOffsetOuter1"></feOffset>
            <feGaussianBlur stdDeviation="1" in="shadowOffsetOuter1" result="shadowBlurOuter1"></feGaussianBlur>
            <feComposite in="shadowBlurOuter1" in2="SourceAlpha" operator="out" result="shadowBlurOuter1"></feComposite>
            <feColorMatrix values="0 0 0 0 0   0 0 0 0 0   0 0 0 0 0  0 0 0 0.5 0" type="matrix" in="shadowBlurOuter1"></feColorMatrix>
        </filter>
        <circle id="path-9" cx="72" cy="175" r="2"></circle>
        <filter x="-87.5%" y="-87.5%" width="275.0%" height="275.0%" filterUnits="objectBoundingBox" id="filter-10">
            <feMorphology radius="0.5" operator="dilate" in="SourceAlpha" result="shadowSpreadOuter1"></feMorphology>
            <feOffset dx="0" dy="0" in="shadowSpreadOuter1" result="shadowOffsetOuter1"></feOffset>
            <feGaussianBlur stdDeviation="1" in="shadowOffsetOuter1" result="shadowBlurOuter1"></feGaussianBlur>
            <feComposite in="shadowBlurOuter1" in2="SourceAlpha" operator="out" result="shadowBlurOuter1"></feComposite>
            <feColorMatrix values="0 0 0 0 0   0 0 0 0 0   0 0 0 0 0  0 0 0 0.5 0" type="matrix" in="shadowBlurOuter1"></feColorMatrix>
        </filter>
        <circle id="path-11" cx="72" cy="195" r="2"></circle>
        <filter x="-87.5%" y="-87.5%" width="275.0%" height="275.0%" filterUnits="objectBoundingBox" id="filter-12">
            <feMorphology radius="0.5" operator="dilate" in="SourceAlpha" result="shadowSpreadOuter1"></feMorphology>
            <feOffset dx="0" dy="0" in="shadowSpreadOuter1" result="shadowOffsetOuter1"></feOffset>
            <feGaussianBlur stdDeviation="1" in="shadowOffsetOuter1" result="shadowBlurOuter1"></feGaussianBlur>
            <feComposite in="shadowBlurOuter1" in2="SourceAlpha" operator="out" result="shadowBlurOuter1"></feComposite>
            <feColorMatrix values="0 0 0 0 0   0 0 0 0 0   0 0 0 0 0  0 0 0 0.5 0" type="matrix" in="shadowBlurOuter1"></feColorMatrix>
        </filter>
        <circle id="path-13" cx="72" cy="215" r="2"></circle>
        <filter x="-87.5%" y="-87.5%" width="275.0%" height="275.0%" filterUnits="objectBoundingBox" id="filter-14">
            <feMorphology radius="0.5" operator="dilate" in="SourceAlpha" result="shadowSpreadOuter1"></feMorphology>
            <feOffset dx="0" dy="0" in="shadowSpreadOuter1" result="shadowOffsetOuter1"></feOffset>
            <feGaussianBlur stdDeviation="1" in="shadowOffsetOuter1" result="shadowBlurOuter1"></feGaussianBlur>
            <feComposite in="shadowBlurOuter1" in2="SourceAlpha" operator="out" result="shadowBlurOuter1"></feComposite>
            <feColorMatrix values="0 0 0 0 0   0 0 0 0 0   0 0 0 0 0  0 0 0 0.5 0" type="matrix" in="shadowBlurOuter1"></feColorMatrix>
        </filter>
    </defs>
    <g id="Page-1" stroke="none" stroke-width="1" fill="none" fill-rule="evenodd">
        <g id="bastoche">
            <ellipse id="Oval" fill="#3F6470" cx="70.5" cy="351.5" rx="61.5" ry="15.5"></ellipse>
            <rect id="Rectangle-3" fill="#F7C98B" x="57" y="126" width="31" height="20"></rect>
            <path d="M7,202.99173 C10.2564965,216.820626 19.1823729,229.156716 33.7776291,240 C37.7083908,236.095812 39.4202052,230.628652 38.9130724,223.598521 C31.1680376,218.051513 25.6287397,209.852006 22.2951787,199 L7,202.99173 Z" id="Path-3" fill="#F7C98B"></path>
            <path d="M104,202.901481 C107.324544,216.310589 116.422228,228.343429 131.29305,239 C135.558562,235.2191 137.432964,229.874112 136.916256,222.965034 C136.465894,222.682371 136.130154,222.468284 135.909035,222.322772 C127.847822,217.017924 122.186079,209.243667 118.923805,199 L104,202.901481 Z" id="Path-3-Copy" fill="#F7C98B" transform="translate(120.500000, 219.000000) scale(-1, 1) translate(-120.500000, -219.000000) "></path>
            <path d="M41.4089295,332 L44.4845942,253.156916 C36.4838616,245.572354 33.0621132,240.868865 34.2193491,239.04645 C34.9749628,237.856509 37.3287675,235.605229 38.5252848,231.408398 C38.949265,229.921271 39.1882691,227.118472 39.2422971,223 L104.035741,223 C105.042716,230.994682 106.888543,236.343499 109.573223,239.04645 C110.868397,240.350438 109.041108,243.419118 106.438506,246.673207 C105.321118,248.070301 103.071531,250.231537 99.6897434,253.156916 L102.54508,332 L78.0833306,332 L80.6900851,258.325813 L63.911264,258.325813 L65.7352539,332 L41.4089295,332 Z" id="Path" fill="#50A7D3"></path>
            <path d="M71.3862814,224 L39.3024664,223.491273 L33.3209877,167.967958 C26.5950622,170.751102 23.2320994,181.002979 23.2320994,198.72359 C23.2320994,199.043523 17.6393497,200.532207 6.45385027,203.189639 C3.25084829,174.251876 17.0014911,150.188663 47.7057788,131 L65.240942,143.51229 L77.962795,143.51229 L95.6300779,131 C126.387615,148.704661 140.399321,172.849463 137.665195,203.434404 L121.702645,199.281998 C121.128996,182.626418 118.023466,172.188404 112.386054,167.967958 L104.240387,223.491273 L71.3862814,224 Z" id="Path-2" fill="#49B1EA"></path>
            <g id="Path-4-Copy" transform="translate(85.000000, 135.000000) scale(-1, 1) translate(-85.000000, -135.000000) ">
                <use fill="black" fill-opacity="1" filter="url(#filter-2)" xlink:href="#path-1"></use>
                <use fill="#49B1EA" fill-rule="evenodd" xlink:href="#path-1"></use>
            </g>
            <g id="Path-4-Copy-2">
                <use fill="black" fill-opacity="1" filter="url(#filter-4)" xlink:href="#path-3"></use>
                <use fill="#49B1EA" fill-rule="evenodd" xlink:href="#path-3"></use>
            </g>
            <g id="left-shoe-" transform="translate(29.000000, 331.000000)">
                <path d="M38.3955672,21.5 C38.1803076,21.5 25.8095167,21.5 1.28319449,21.5" id="Line" stroke="#EEF8FF" stroke-linecap="square"></path>
                <path d="M3.22851485,18.6692949 C3.91838686,9.20444008 6.9520695,3.06973175 12.3295628,0.26516986 L36.8022433,0.26516986 C39.2028862,7.18675527 39.858626,13.3214636 38.7694628,18.6692949 L3.22851485,18.6692949 Z" id="Path-13" fill="#FFFFFF"></path>
                <path d="M38.8137379,18.0552346 C38.9973273,20.1219117 38.9973273,21.1552503 38.8137379,21.1552503 C38.6301486,21.1552503 25.9465375,21.1552503 0.762904773,21.1552503 C1.11515401,19.0885732 1.91184836,18.0552346 3.15298781,18.0552346 C4.39412726,18.0552346 16.281044,18.0552346 38.8137379,18.0552346 Z" id="Path-14" fill="#D8D8D8"></path>
                <path d="M12,6.57503627 C14.1892882,5.66700166 15.9947587,5.15374882 17.4164116,5.03527774 C18.8380645,4.91680667 21.032594,5.09672618 24,5.57503627" id="Line-2-Copy-3" stroke="#EAEFF1" stroke-linecap="square" transform="translate(18.000000, 5.787518) scale(-1, 1) translate(-18.000000, -5.787518) "></path>
                <path d="M12,3.57503627 C14.1892882,2.66700166 15.9947587,2.15374882 17.4164116,2.03527774 C18.8380645,1.91680667 21.032594,2.09672618 24,2.57503627" id="Line-2-Copy-2" stroke="#EAEFF1" stroke-linecap="square" transform="translate(18.000000, 2.787518) scale(-1, 1) translate(-18.000000, -2.787518) "></path>
            </g>
            <g id="right-shoe" transform="translate(94.500000, 342.500000) scale(-1, 1) translate(-94.500000, -342.500000) translate(75.000000, 331.000000)">
                <path d="M37.5,21.5 L0.5,21.5" id="Line" stroke="#EEF8FF" stroke-linecap="square"></path>
                <path d="M2.22851485,18.6692949 C2.91838686,9.20444008 5.9520695,3.06973175 11.3295628,0.26516986 L35.8022433,0.26516986 C38.2028862,7.18675527 38.858626,13.3214636 37.7694628,18.6692949 L2.22851485,18.6692949 Z" id="Path-13" fill="#FFFFFF"></path>
                <path d="M37.9109365,18.0552346 C38.3104489,20.0552346 38.3104489,21.0552346 37.9109365,21.0552346 C37.5114241,21.0552346 24.8767433,21.0552346 0.00689422232,21.0552346 C0.283932906,19.0552346 1.03815905,18.0552346 2.26957266,18.0552346 C3.50098626,18.0552346 15.3814409,18.0552346 37.9109365,18.0552346 Z" id="Path-14" fill="#D8D8D8"></path>
                <path d="M11,6.57503627 C13.1892882,5.66700166 14.9947587,5.15374882 16.4164116,5.03527774 C17.8380645,4.91680667 20.032594,5.09672618 23,5.57503627" id="Line-2-Copy-3" stroke="#EAEFF1" stroke-linecap="square" transform="translate(17.000000, 5.787518) scale(-1, 1) translate(-17.000000, -5.787518) "></path>
                <path d="M11,3.57503627 C13.1892882,2.66700166 14.9947587,2.15374882 16.4164116,2.03527774 C17.8380645,1.91680667 20.032594,2.09672618 23,2.57503627" id="Line-2-Copy-2" stroke="#EAEFF1" stroke-linecap="square" transform="translate(17.000000, 2.787518) scale(-1, 1) translate(-17.000000, -2.787518) "></path>
            </g>
            <g id="Line-2" stroke-linecap="square">
                <use fill="black" fill-opacity="1" filter="url(#filter-6)" xlink:href="#path-5"></use>
                <use stroke="#476E7F" stroke-width="1" xlink:href="#path-5"></use>
            </g>
            <g id="Oval-2">
                <use fill="black" fill-opacity="1" filter="url(#filter-8)" xlink:href="#path-7"></use>
                <use stroke="#476E7F" stroke-width="1" fill="#80C1DD" fill-rule="evenodd" xlink:href="#path-7"></use>
            </g>
            <g id="Oval-2-Copy">
                <use fill="black" fill-opacity="1" filter="url(#filter-10)" xlink:href="#path-9"></use>
                <use stroke="#476E7F" stroke-width="1" fill="#80C1DD" fill-rule="evenodd" xlink:href="#path-9"></use>
            </g>
            <g id="Oval-2-Copy-2">
                <use fill="black" fill-opacity="1" filter="url(#filter-12)" xlink:href="#path-11"></use>
                <use stroke="#476E7F" stroke-width="1" fill="#80C1DD" fill-rule="evenodd" xlink:href="#path-11"></use>
            </g>
            <g id="Oval-2-Copy-3">
                <use fill="black" fill-opacity="1" filter="url(#filter-14)" xlink:href="#path-13"></use>
                <use stroke="#476E7F" stroke-width="1" fill="#80C1DD" fill-rule="evenodd" xlink:href="#path-13"></use>
            </g>
            <polygon id="Rectangle-2" fill="#593626" points="39.1461661 223.097701 103.447149 223 104 227 39 227"></polygon>
            <g id="head" transform="translate(-24.000000, -60.000000)">
                <path d="M64.5211027,176.971163 C51.1141211,157.13447 55.4849797,162.362426 49.1868047,148.466284 C38.2653182,141.891774 35.3406774,133.243483 40.4128822,122.52141 C38.2406415,82.6623405 56.6030141,62.7328058 95.5,62.7328058 C134.396986,62.7328058 153.14653,82.6623405 151.748633,122.52141 C156.427232,135.066317 153.813832,143.714608 143.908434,148.466284 C136.812374,160.810188 131.098151,170.311814 126.765765,176.971163 C113.166968,197.873997 77.9280844,196.807856 64.5211027,176.971163 Z" id="Path-4" fill="#F7C98B"></path>
                <g id="bouc" transform="translate(74.000000, 159.000000)" fill-rule="nonzero">
                    <path d="M33.7318084,35.4906522 L8.961919,35.4906522 C4.0323549,35.4906522 0,31.4626092 0,26.5408001 L0,8.9498519 C0,4.0280427 4.0323549,0 8.961919,0 L33.7318084,0 C38.6613725,0 42.6937274,4.0280427 42.6937274,8.9498519 L42.6937274,26.5408001 C42.6937274,31.4626092 38.6613725,35.4906522 33.7318084,35.4906522" id="Fill-704" fill="#3B3A37"></path>
                    <path d="M31.7129238,21.0841283 L10.9469064,21.0841283 C8.7761079,21.0841283 7,19.3128457 7,17.1454622 L7,12.9406974 C7,10.7733138 8.7761079,9 10.9469064,9 L31.7129238,9 C33.8837223,9 35.6598302,10.7733138 35.6598302,12.9406974 L35.6598302,17.1454622 C35.6598302,19.3128457 33.8837223,21.0841283 31.7129238,21.0841283" id="Fill-705" fill="#F7C88B"></path>
                    <path d="M28.5383517,25.0560855 L14.0344879,25.0560855 C12.9155196,25.0560855 12,24.1420062 12,23.0247982 L12,19.0312873 C12,17.9140793 12.9155196,17 14.0344879,17 L28.5383517,17 C29.65732,17 30.5728395,17.9140793 30.5728395,19.0312873 L30.5728395,23.0247982 C30.5728395,24.1420062 29.65732,25.0560855 28.5383517,25.0560855" id="Fill-706" fill="#3B3A37"></path>
                </g>
                <g id="mouth" transform="translate(76.000000, 168.000000)" fill="#FFFFFF">
                    <path d="M9,2 L31,2 C28.4858802,5.36251768 24.6453154,7.02905658 19.4783056,6.99961672 C14.3112959,6.97017686 10.8185273,5.30363796 9,2 Z" id="Path-12"></path>
                </g>
                <path d="M41.2651867,117.287587 L57.322742,121.317199" id="Line-Copy-2" stroke="#6AA6B9" stroke-width="2" stroke-linecap="square" transform="translate(49.293964, 119.302393) scale(-1, 1) translate(-49.293964, -119.302393) "></path>
                <path d="M133.990115,117.090082 L152,119" id="Line-Copy" stroke="#6AA6B9" stroke-width="2" stroke-linecap="square"></path>
                <path d="M110.498939,109.812136 C107.860313,106.222218 116.258564,103.147148 122.29236,104.214908 C128.328216,105.280665 133.263271,108.211497 132.989101,110.345015 C132.714932,112.476529 125.67516,108.746379 120.647341,108.47994 C117.854108,108.331696 111.869787,111.677211 110.498939,109.812136" id="Fill-732" fill="#3B3A37" fill-rule="nonzero"></path>
                <path d="M82.5010612,109.812136 C85.1396875,106.222218 76.7414345,103.147148 70.7076382,104.214908 C64.6738418,105.280665 59.7367245,108.211497 60.0108943,110.345015 C60.2850641,112.476529 67.3248368,108.746379 72.3526568,108.47994 C75.1458901,108.331696 81.1302122,111.677211 82.5010612,109.812136" id="Fill-733" fill="#3B3A37" fill-rule="nonzero"></path>
                <path d="M78,126.998958 C78,131.417133 75.5366795,135 72.4989887,135 C69.461298,135 67,131.417133 67,126.998958 C67,122.580784 69.461298,119 72.4989887,119 C75.5366795,119 78,122.580784 78,126.998958" id="Fill-724" fill="#46271B" fill-rule="nonzero"></path>
                <path d="M76,130 C76,130.552632 75.5530516,131 75.000939,131 C74.4488263,131 74,130.552632 74,130 C74,129.447368 74.4488263,129 75.000939,129 C75.5530516,129 76,129.447368 76,130" id="Fill-726" fill="#FFFFFE" fill-rule="nonzero"></path>
                <path d="M125,126.998958 C125,131.417133 122.538702,135 119.501011,135 C116.46332,135 114,131.417133 114,126.998958 C114,122.580784 116.46332,119 119.501011,119 C122.538702,119 125,122.580784 125,126.998958" id="Fill-727" fill="#46271B" fill-rule="nonzero"></path>
                <path d="M123,130 C123,130.552632 122.552632,131 122,131 C121.447368,131 121,130.552632 121,130 C121,129.447368 121.447368,129 122,129 C122.552632,129 123,129.447368 123,130" id="Fill-729" fill="#FFFFFE" fill-rule="nonzero"></path>
                <path d="M73,123.001074 C73,124.10467 72.1046699,125 70.9989265,125 C69.8953301,125 69,124.10467 69,123.001074 C69,121.89533 69.8953301,121 70.9989265,121 C72.1046699,121 73,121.89533 73,123.001074" id="Fill-725" fill="#FFFFFE" fill-rule="nonzero"></path>
                <path d="M120,123.001074 C120,124.10467 119.10467,125 118.001074,125 C116.89533,125 116,124.10467 116,123.001074 C116,121.89533 116.89533,121 118.001074,121 C119.10467,121 120,121.89533 120,123.001074" id="Fill-728" fill="#FFFFFE" fill-rule="nonzero"></path>
                <rect id="Rectangle" stroke="#6AA6B9" stroke-width="2" x="103" y="117" width="33" height="20" rx="3"></rect>
                <rect id="Rectangle-Copy" stroke="#6AA6B9" stroke-width="2" x="56" y="117" width="33" height="20" rx="3"></rect>
                <path d="M87,117 L105,117" id="Line" stroke="#6AA6B9" stroke-width="2" stroke-linecap="square"></path>
                <path d="M95.4041714,144 C91.0541439,144 85.7352558,160 95.555802,160 C105.376348,160 99.7561679,144 95.4041714,144" id="Fill-730" fill="#EFA369" fill-rule="nonzero"></path>
            </g>
        </g>
    </g>
</svg>