<svg xmlns="http://www.w3.org/2000/svg" width="395.505" height="91.806"><defs><clipPath id="a"><path d="M0 841.89h595.28V0H0v841.89z"/></clipPath></defs><g clip-path="url(#a)" transform="matrix(1.25 0 0 -1.25 -174.487 572.131)"><path d="M201.208 440.446v.063l-.007-.002a2.967 2.967 0 0 1-5.912-.48h-.002v-41.854c0-2.17-.776-4.033-2.331-5.587-1.554-1.555-3.368-2.332-5.44-2.332-2.393 0-4.366.777-5.921 2.332-1.53 1.505-2.32 3.403-2.368 5.7v17.417h-.01l.002.055a2.962 2.962 0 0 1-3.084 2.827 2.957 2.957 0 0 1-2.826-2.896h-.004v-17.516c0-3.797 1.358-7.079 4.07-9.843 2.666-2.714 5.97-4.07 9.919-4.07 3.849 0 7.13 1.356 9.844 4.07 2.713 2.715 4.07 5.994 4.07 9.843v41.873c.008.13.01.26 0 .391v.01m59.155 6.181c1.01 0 1.868.364 2.578 1.093.71.73 1.065 1.596 1.065 2.606 0 1.027-.355 1.896-1.065 2.605-.728.73-1.588 1.093-2.578 1.093-1.009 0-1.869-.364-2.578-1.093a3.591 3.591 0 0 1-1.065-2.605c0-1.029.353-1.9 1.065-2.62a3.487 3.487 0 0 1 2.578-1.079m-62.19 7.397c-1.009 0-1.869-.364-2.579-1.093a3.598 3.598 0 0 1-1.064-2.605c0-1.029.354-1.9 1.064-2.62a3.49 3.49 0 0 1 2.58-1.079c1.008 0 1.867.364 2.577 1.093.711.73 1.065 1.596 1.065 2.606 0 1.027-.354 1.896-1.065 2.605-.728.73-1.588 1.093-2.578 1.093m28.039-40.939c-.05-2.294-.84-4.194-2.37-5.697-1.578-1.555-3.403-2.332-5.476-2.332-2.145 0-4.057.777-5.736 2.332-1.652 1.528-2.48 3.428-2.48 5.697v13.619c.025 2.122.803 3.947 2.333 5.478 1.554 1.553 3.367 2.33 5.439 2.33 2.369 0 4.342-.777 5.92-2.33 1.53-1.506 2.32-3.405 2.37-5.7v-13.397zm-8.067 27.423c-3.85 0-7.13-1.358-9.843-4.072-2.715-2.714-4.071-5.994-4.071-9.843v-13.618c0-3.85 1.356-7.131 4.07-9.845 2.714-2.714 5.995-4.07 9.844-4.07 3.847 0 7.14 1.356 9.88 4.07 2.738 2.714 4.108 5.996 4.108 9.845v13.618c0 3.849-1.37 7.129-4.108 9.843-2.74 2.714-6.033 4.072-9.88 4.072m154.962-20.687v6.771c0 2.171.777 4.035 2.332 5.59 1.553 1.553 3.367 2.33 5.438 2.33 2.371 0 4.343-.779 5.923-2.337 1.43-1.409 2.205-3.153 2.33-5.23l-16.023-7.124zm21.98 6.771c0 3.998-1.37 7.278-4.106 9.844-2.886 2.714-6.18 4.072-9.88 4.072-3.849 0-7.13-1.358-9.846-4.072-2.713-2.714-4.069-5.994-4.069-9.844v-13.618c0-3.848 1.356-7.13 4.07-9.844 2.714-2.714 5.996-4.07 9.844-4.07 3.847 0 7.031 1.333 9.55 3.997 2.957 3.158 4.437 6.464 4.437 9.917v2.32a2.972 2.972 0 0 1-2.97 2.941 2.974 2.974 0 0 1-2.938-2.524l-.012.003v-.096a2.98 2.98 0 0 1-.024-.355 3 3 0 0 1 .024-.357v-1.82c-.05-2.295-.839-4.196-2.367-5.699-1.58-1.554-3.406-2.332-5.478-2.332-2.368 0-4.33.795-5.883 2.387-1.555 1.591-2.332 3.557-2.332 5.9l21.98 9.772v3.478zm-36.175-13.507c-.05-2.294-.84-4.194-2.368-5.697-1.58-1.555-3.405-2.332-5.476-2.332-2.147 0-4.059.777-5.738 2.332-1.652 1.528-2.48 3.428-2.48 5.697v13.619c.026 2.122.803 3.947 2.333 5.478 1.555 1.553 3.368 2.33 5.44 2.33 2.368 0 4.341-.777 5.921-2.33 1.527-1.506 2.318-3.405 2.368-5.7v-13.397zm2.988 44.048a2.967 2.967 0 0 1-2.967-2.871l-.02-.001V437.99c-2.345 1.678-5.033 2.518-8.068 2.518-3.849 0-7.128-1.358-9.843-4.072-2.714-2.714-4.07-5.994-4.07-9.843v-13.618c0-3.85 1.356-7.131 4.07-9.845 2.715-2.714 5.994-4.07 9.843-4.07 3.848 0 7.143 1.356 9.88 4.07 2.74 2.714 4.11 5.996 4.11 9.845v40.732c.021.149.037.299.037.454a2.972 2.972 0 0 1-2.972 2.972" fill="#2b2b2a"/><path d="M328.538 413.086c-.05-2.294-.838-4.194-2.368-5.697-1.58-1.555-3.403-2.332-5.476-2.332-2.147 0-4.059.777-5.738 2.332-1.652 1.528-2.48 3.428-2.48 5.697v2.235c.003.07.012.138.012.208v3.072l-.012-.004v8.108c.026 2.122.803 3.947 2.333 5.478 1.555 1.553 3.368 2.33 5.44 2.33 2.37 0 4.341-.777 5.921-2.33 1.53-1.506 2.318-3.405 2.368-5.7v-13.397zm-8.067 27.423c-3.849 0-7.128-1.358-9.843-4.072-2.714-2.714-4.069-5.994-4.069-9.843v-11.365c-.046-2.877-1.099-5.333-3.174-7.36-2.122-2.098-4.65-3.144-7.587-3.144-2.985 0-5.527 1.046-7.624 3.145-1.91 1.91-2.94 4.174-3.11 6.784v1.282l-.034-.004v22.688c0 2.96 1.047 5.483 3.144 7.568 2.097 2.085 4.64 3.127 7.624 3.127 2.936 0 5.465-1.048 7.587-3.145.863-.855 1.786-2.264 2.541-3.608a2.893 2.893 0 1 1 5.138 2.644l.007.004c-.806 1.772-1.962 3.413-3.469 4.919-3.207 3.233-7.14 4.848-11.804 4.848-4.614 0-8.549-1.61-11.804-4.828-3.257-3.22-4.886-7.1-4.886-11.638v-22.982c0-.24.023-.467.032-.703-.027-3.936-.802-5.606-2.329-7.252-1.553-1.68-3.367-2.517-5.44-2.517-2.368 0-4.342.777-5.92 2.332-1.53 1.503-2.319 3.403-2.369 5.697v27.423l-.016-.002v.036a2.953 2.953 0 1 1-5.9-.25c0-.01.003-.02.003-.032h-.007v-26.904l-.025-.011c0-2.172-.777-4.095-2.332-5.772-1.554-1.68-3.368-2.517-5.44-2.517-2.369 0-4.34.777-5.92 2.332-1.53 1.503-2.32 3.403-2.368 5.697v41.468c.003.062.01.123.01.186a2.965 2.965 0 0 1-5.93 0v-.01h-.003v-41.754c0-3.85 1.37-7.131 4.11-9.845 2.738-2.714 6.031-4.07 9.88-4.07 3.847 0 7.128 1.356 9.843 4.07.413.414.785.848 1.135 1.286.355-.438.73-.872 1.147-1.286 2.738-2.714 6.032-4.07 9.881-4.07 3.85 0 7.13 1.356 9.843 4.07a14.8 14.8 0 0 1 1.758 2.11c.386-.467.795-.926 1.243-1.37 3.23-3.206 7.166-4.81 11.804-4.81 4.613 0 8.548 1.61 11.804 4.83.45.445.861.906 1.25 1.376a15.002 15.002 0 0 1 1.776-2.136c2.715-2.714 5.994-4.07 9.843-4.07 3.848 0 7.143 1.356 9.882 4.07 2.737 2.714 4.107 5.996 4.107 9.845v13.618c0 3.849-1.37 7.129-4.107 9.843-2.739 2.714-6.034 4.072-9.882 4.072" fill="#2b2b2a"/><path d="M433.546 396.935c-.69 0-1.38.262-1.905.788a2.697 2.697 0 0 0 0 3.81l17.846 17.847-17.846 17.847a2.695 2.695 0 1 0 3.812 3.811l19.752-19.752a2.692 2.692 0 0 0 0-3.811l-19.752-19.752a2.687 2.687 0 0 0-1.907-.788m-271.509.702c-.69 0-1.378.263-1.905.789l-19.753 19.752a2.695 2.695 0 0 0 0 3.811l19.752 19.752a2.694 2.694 0 0 0 3.81 0 2.694 2.694 0 0 0 0-3.811l-17.846-17.847 17.847-17.846a2.694 2.694 0 0 0-1.905-4.6m239.701-6.733a2.694 2.694 0 0 0-2.49 3.723l21.248 51.558a2.695 2.695 0 1 0 4.983-2.053l-21.248-51.557a2.695 2.695 0 0 0-2.493-1.67" fill="#e9ce37"/></g></svg>