<svg width="130" height="140" xmlns="http://www.w3.org/2000/svg"><g transform="translate(-31 -58)" fill="none" fill-rule="evenodd"><path d="M64.521 176.971c-13.407-19.837-9.036-14.609-15.334-28.505-10.922-6.574-13.846-15.223-8.774-25.945C38.24 82.662 56.603 62.733 95.5 62.733c38.897 0 57.647 19.93 56.249 59.788 4.678 12.545 2.065 21.194-7.84 25.945-7.097 12.344-12.81 21.846-17.143 28.505-13.599 20.903-48.838 19.837-62.245 0z" fill="#F7C98B"/><g fill-rule="nonzero"><path d="M107.732 194.49h-24.77c-4.93 0-8.962-4.027-8.962-8.95v-17.59c0-4.922 4.032-8.95 8.962-8.95h24.77c4.93 0 8.962 4.028 8.962 8.95v17.59c0 4.923-4.033 8.95-8.962 8.95" fill="#3B3A37"/><path d="M105.713 180.084H84.947c-2.17 0-3.947-1.771-3.947-3.939v-4.204A3.955 3.955 0 0 1 84.947 168h20.766a3.955 3.955 0 0 1 3.947 3.94v4.205a3.954 3.954 0 0 1-3.947 3.94" fill="#F7C88B"/><path d="M102.538 184.056H88.034A2.039 2.039 0 0 1 86 182.025v-3.994c0-1.117.916-2.031 2.034-2.031h14.504c1.12 0 2.035.914 2.035 2.031v3.994a2.039 2.039 0 0 1-2.035 2.031" fill="#3B3A37"/></g><path d="M85 170h22c-2.514 3.363-6.355 5.03-11.522 5-5.167-.03-8.66-1.696-10.478-5z" fill="#FFF"/><path d="M57.323 117.288l-16.058 4.03m92.725-4.228L152 119" stroke="#6AA6B9" stroke-width="2" stroke-linecap="square"/><path d="M110.499 109.812c-2.639-3.59 5.76-6.665 11.793-5.597 6.036 1.066 10.971 3.996 10.697 6.13-.274 2.132-7.314-1.599-12.342-1.865-2.793-.148-8.777 3.197-10.148 1.332m-27.998 0c2.639-3.59-5.76-6.665-11.793-5.597-6.034 1.066-10.971 3.996-10.697 6.13.274 2.132 7.314-1.599 12.342-1.865 2.793-.148 8.777 3.197 10.148 1.332" fill="#3B3A37" fill-rule="nonzero"/><path d="M78 126.999c0 4.418-2.463 8.001-5.501 8.001-3.038 0-5.499-3.583-5.499-8.001 0-4.418 2.461-7.999 5.499-7.999S78 122.58 78 126.999" fill="#46271B" fill-rule="nonzero"/><path d="M76 130a1 1 0 1 1-1.998.002A1 1 0 0 1 76 130" fill="#FFFFFE" fill-rule="nonzero"/><path d="M125 126.999c0 4.418-2.461 8.001-5.499 8.001S114 131.417 114 126.999c0-4.418 2.463-7.999 5.501-7.999 3.038 0 5.499 3.58 5.499 7.999" fill="#46271B" fill-rule="nonzero"/><path d="M123 130a1 1 0 1 1-2 0 1 1 0 0 1 2 0m-50-6.999a2 2 0 1 1-4-.002 2 2 0 0 1 4 .002m47 0a2 2 0 1 1-3.999 0 2 2 0 0 1 3.999 0" fill="#FFFFFE" fill-rule="nonzero"/><rect stroke="#6AA6B9" stroke-width="2" x="103" y="117" width="33" height="20" rx="3"/><rect stroke="#6AA6B9" stroke-width="2" x="56" y="117" width="33" height="20" rx="3"/><path d="M87 117h18" stroke="#6AA6B9" stroke-width="2" stroke-linecap="square"/><path d="M95.404 144c-4.35 0-9.669 16 .152 16 9.82 0 4.2-16-.152-16" fill="#EFA369" fill-rule="nonzero"/></g></svg>