<svg width="48" height="48" xmlns="http://www.w3.org/2000/svg"><path d="M46.62 29.095a22.32 22.32 0 0 0 .528-4.846c0-12.464-10.248-22.571-22.894-22.571-1.332 0-2.639.114-3.914.33A13.34 13.34 0 0 0 13.278 0C5.944 0 0 5.86 0 13.093c0 2.415.666 4.674 1.823 6.621a22.439 22.439 0 0 0-.463 4.535c0 12.47 10.25 22.574 22.894 22.574 1.434 0 2.833-.13 4.194-.378A13.371 13.371 0 0 0 34.724 48C42.056 48 48 42.138 48 34.91c0-2.09-.497-4.062-1.38-5.815zm-10.623 5.943c-1.058 1.48-2.622 2.649-4.654 3.478-2.006.823-4.41 1.243-7.151 1.243-3.288 0-6.045-.57-8.199-1.697-1.538-.818-2.805-1.925-3.767-3.3-.974-1.38-1.465-2.75-1.465-4.078 0-.823.322-1.541.954-2.128.626-.585 1.43-.877 2.39-.877.785 0 1.465.231 2.015.69.528.443.98 1.096 1.344 1.934.406.918.846 1.691 1.312 2.295.452.59 1.098 1.082 1.922 1.47.83.383 1.95.583 3.325.583 1.893 0 3.445-.4 4.611-1.185 1.143-.765 1.696-1.689 1.696-2.818 0-.888-.29-1.589-.883-2.14-.627-.573-1.448-1.018-2.444-1.33-1.042-.317-2.453-.664-4.2-1.026-2.379-.5-4.397-1.093-6-1.77-1.642-.687-2.966-1.64-3.934-2.834-.982-1.216-1.481-2.738-1.481-4.527 0-1.703.522-3.241 1.555-4.565 1.021-1.316 2.517-2.346 4.445-3.044 1.899-.693 4.157-1.043 6.716-1.043 2.044 0 3.841.233 5.343.695 1.51.462 2.78 1.085 3.779 1.856 1.007.779 1.758 1.605 2.226 2.468.475.87.717 1.736.717 2.573 0 .807-.316 1.541-.94 2.178-.626.646-1.419.971-2.35.971-.847 0-1.513-.205-1.97-.606-.43-.376-.875-.96-1.369-1.795-.57-1.068-1.262-1.91-2.055-2.506-.77-.579-2.054-.868-3.824-.868-1.637 0-2.974.322-3.965.965-.954.615-1.42 1.324-1.42 2.165 0 .512.15.943.46 1.31.322.395.782.734 1.364 1.024.6.298 1.222.537 1.843.704.635.175 1.701.434 3.166.768a53.15 53.15 0 0 1 5.06 1.307c1.527.479 2.842 1.068 3.92 1.761 1.095.704 1.962 1.606 2.58 2.685.618 1.088.931 2.423.931 3.978 0 1.859-.542 3.553-1.603 5.036z" fill-rule="evenodd"/></svg>