<?xml version="1.0" encoding="UTF-8"?>
<svg width="130px" height="140px" viewBox="0 0 130 140" version="1.1" xmlns="http://www.w3.org/2000/svg" xmlns:xlink="http://www.w3.org/1999/xlink">
    <!-- Generator: Sketch 48.2 (47327) - http://www.bohemiancoding.com/sketch -->
    <title>logo</title>
    <desc>Created with Sketch.</desc>
    <defs></defs>
    <g id="Page-1" stroke="none" stroke-width="1" fill="none" fill-rule="evenodd">
        <g id="logo">
            <g id="head" transform="translate(-31.000000, -58.000000)">
                <path d="M64.5211027,176.971163 C51.1141211,157.13447 55.4849797,162.362426 49.1868047,148.466284 C38.2653182,141.891774 35.3406774,133.243483 40.4128822,122.52141 C38.2406415,82.6623405 56.6030141,62.7328058 95.5,62.7328058 C134.396986,62.7328058 153.14653,82.6623405 151.748633,122.52141 C156.427232,135.066317 153.813832,143.714608 143.908434,148.466284 C136.812374,160.810188 131.098151,170.311814 126.765765,176.971163 C113.166968,197.873997 77.9280844,196.807856 64.5211027,176.971163 Z" id="Path-4" fill="#F7C98B"></path>
                <g id="bouc" transform="translate(74.000000, 159.000000)" fill-rule="nonzero">
                    <path d="M33.7318084,35.4906522 L8.961919,35.4906522 C4.0323549,35.4906522 0,31.4626092 0,26.5408001 L0,8.9498519 C0,4.0280427 4.0323549,0 8.961919,0 L33.7318084,0 C38.6613725,0 42.6937274,4.0280427 42.6937274,8.9498519 L42.6937274,26.5408001 C42.6937274,31.4626092 38.6613725,35.4906522 33.7318084,35.4906522" id="Fill-704" fill="#3B3A37"></path>
                    <path d="M31.7129238,21.0841283 L10.9469064,21.0841283 C8.7761079,21.0841283 7,19.3128457 7,17.1454622 L7,12.9406974 C7,10.7733138 8.7761079,9 10.9469064,9 L31.7129238,9 C33.8837223,9 35.6598302,10.7733138 35.6598302,12.9406974 L35.6598302,17.1454622 C35.6598302,19.3128457 33.8837223,21.0841283 31.7129238,21.0841283" id="Fill-705" fill="#F7C88B"></path>
                    <path d="M28.5383517,25.0560855 L14.0344879,25.0560855 C12.9155196,25.0560855 12,24.1420062 12,23.0247982 L12,19.0312873 C12,17.9140793 12.9155196,17 14.0344879,17 L28.5383517,17 C29.65732,17 30.5728395,17.9140793 30.5728395,19.0312873 L30.5728395,23.0247982 C30.5728395,24.1420062 29.65732,25.0560855 28.5383517,25.0560855" id="Fill-706" fill="#3B3A37"></path>
                </g>
                <g id="mouth" transform="translate(76.000000, 168.000000)" fill="#FFFFFF">
                    <path d="M9,2 L31,2 C28.4858802,5.36251768 24.6453154,7.02905658 19.4783056,6.99961672 C14.3112959,6.97017686 10.8185273,5.30363796 9,2 Z" id="Path-12"></path>
                </g>
                <path d="M41.2651867,117.287587 L57.322742,121.317199" id="Line-Copy-2" stroke="#6AA6B9" stroke-width="2" stroke-linecap="square" transform="translate(49.293964, 119.302393) scale(-1, 1) translate(-49.293964, -119.302393) "></path>
                <path d="M133.990115,117.090082 L152,119" id="Line-Copy" stroke="#6AA6B9" stroke-width="2" stroke-linecap="square"></path>
                <path d="M110.498939,109.812136 C107.860313,106.222218 116.258564,103.147148 122.29236,104.214908 C128.328216,105.280665 133.263271,108.211497 132.989101,110.345015 C132.714932,112.476529 125.67516,108.746379 120.647341,108.47994 C117.854108,108.331696 111.869787,111.677211 110.498939,109.812136" id="Fill-732" fill="#3B3A37" fill-rule="nonzero"></path>
                <path d="M82.5010612,109.812136 C85.1396875,106.222218 76.7414345,103.147148 70.7076382,104.214908 C64.6738418,105.280665 59.7367245,108.211497 60.0108943,110.345015 C60.2850641,112.476529 67.3248368,108.746379 72.3526568,108.47994 C75.1458901,108.331696 81.1302122,111.677211 82.5010612,109.812136" id="Fill-733" fill="#3B3A37" fill-rule="nonzero"></path>
                <path d="M78,126.998958 C78,131.417133 75.5366795,135 72.4989887,135 C69.461298,135 67,131.417133 67,126.998958 C67,122.580784 69.461298,119 72.4989887,119 C75.5366795,119 78,122.580784 78,126.998958" id="Fill-724" fill="#46271B" fill-rule="nonzero"></path>
                <path d="M76,130 C76,130.552632 75.5530516,131 75.000939,131 C74.4488263,131 74,130.552632 74,130 C74,129.447368 74.4488263,129 75.000939,129 C75.5530516,129 76,129.447368 76,130" id="Fill-726" fill="#FFFFFE" fill-rule="nonzero"></path>
                <path d="M125,126.998958 C125,131.417133 122.538702,135 119.501011,135 C116.46332,135 114,131.417133 114,126.998958 C114,122.580784 116.46332,119 119.501011,119 C122.538702,119 125,122.580784 125,126.998958" id="Fill-727" fill="#46271B" fill-rule="nonzero"></path>
                <path d="M123,130 C123,130.552632 122.552632,131 122,131 C121.447368,131 121,130.552632 121,130 C121,129.447368 121.447368,129 122,129 C122.552632,129 123,129.447368 123,130" id="Fill-729" fill="#FFFFFE" fill-rule="nonzero"></path>
                <path d="M73,123.001074 C73,124.10467 72.1046699,125 70.9989265,125 C69.8953301,125 69,124.10467 69,123.001074 C69,121.89533 69.8953301,121 70.9989265,121 C72.1046699,121 73,121.89533 73,123.001074" id="Fill-725" fill="#FFFFFE" fill-rule="nonzero"></path>
                <path d="M120,123.001074 C120,124.10467 119.10467,125 118.001074,125 C116.89533,125 116,124.10467 116,123.001074 C116,121.89533 116.89533,121 118.001074,121 C119.10467,121 120,121.89533 120,123.001074" id="Fill-728" fill="#FFFFFE" fill-rule="nonzero"></path>
                <rect id="Rectangle" stroke="#6AA6B9" stroke-width="2" x="103" y="117" width="33" height="20" rx="3"></rect>
                <rect id="Rectangle-Copy" stroke="#6AA6B9" stroke-width="2" x="56" y="117" width="33" height="20" rx="3"></rect>
                <path d="M87,117 L105,117" id="Line" stroke="#6AA6B9" stroke-width="2" stroke-linecap="square"></path>
                <path d="M95.4041714,144 C91.0541439,144 85.7352558,160 95.555802,160 C105.376348,160 99.7561679,144 95.4041714,144" id="Fill-730" fill="#EFA369" fill-rule="nonzero"></path>
            </g>
        </g>
    </g>
</svg>