<?xml version="1.0" encoding="UTF-8"?>
<svg width="119px" height="105px" viewBox="0 0 119 105" version="1.1" xmlns="http://www.w3.org/2000/svg" xmlns:xlink="http://www.w3.org/1999/xlink">
    <!-- Generator: Sketch 48.1 (47250) - http://www.bohemiancoding.com/sketch -->
    <title>tete</title>
    <desc>Created with Sketch.</desc>
    <defs></defs>
    <g id="Artboard" stroke="none" stroke-width="1" fill="none" fill-rule="evenodd" transform="translate(-105.000000, -24.000000)">
        <g id="seb" transform="translate(76.000000, 24.000000)">
            <g id="tete" transform="translate(29.000000, 0.000000)">
                <path d="M118.812055,50.484963 C118.812055,78.2750048 92.2518167,100.801981 59.490459,100.801981 C26.7291013,100.801981 0.170896979,78.2750048 0.170896979,50.484963 C0.170896979,22.6969525 26.7291013,0.169976117 59.490459,0.169976117 C92.2518167,0.169976117 118.812055,22.6969525 118.812055,50.484963" id="Fill-697" fill="#F7C88B"></path>
                <path d="M71.8764209,104.921432 L47.1065315,104.921432 C42.1769674,104.921432 38.1446125,100.893389 38.1446125,95.9715799 L38.1446125,78.3806317 C38.1446125,73.4588225 42.1769674,69.4307798 47.1065315,69.4307798 L71.8764209,69.4307798 C76.805985,69.4307798 80.8383399,73.4588225 80.8383399,78.3806317 L80.8383399,95.9715799 C80.8383399,100.893389 76.805985,104.921432 71.8764209,104.921432" id="Fill-704" fill="#3B3A37"></path>
                <path d="M69.8744849,90.5764808 L49.1084675,90.5764808 C46.937669,90.5764808 45.1615611,88.8051982 45.1615611,86.6378147 L45.1615611,82.4330499 C45.1615611,80.2656663 46.937669,78.4923525 49.1084675,78.4923525 L69.8744849,78.4923525 C72.0452834,78.4923525 73.8213913,80.2656663 73.8213913,82.4330499 L73.8213913,86.6378147 C73.8213913,88.8051982 72.0452834,90.5764808 69.8744849,90.5764808" id="Fill-705" fill="#F7C88B"></path>
                <path d="M66.7434081,94.2693611 L52.2395443,94.2693611 C51.120576,94.2693611 50.2050564,93.3552818 50.2050564,92.2380738 L50.2050564,88.2445629 C50.2050564,87.1273549 51.120576,86.2132756 52.2395443,86.2132756 L66.7434081,86.2132756 C67.8623764,86.2132756 68.7778959,87.1273549 68.7778959,88.2445629 L68.7778959,92.2380738 C68.7778959,93.3552818 67.8623764,94.2693611 66.7434081,94.2693611" id="Fill-706" fill="#3B3A37"></path>
                <path d="M42.0365878,48.0921065 C42.0365878,52.4004669 39.5585816,55.8942811 36.5027808,55.8942811 C33.4469801,55.8942811 30.9710084,52.4004669 30.9710084,48.0921065 C30.9710084,43.7837461 33.4469801,40.2919632 36.5027808,40.2919632 C39.5585816,40.2919632 42.0365878,43.7837461 42.0365878,48.0921065" id="Fill-724" fill="#46271B"></path>
                <path d="M39.9349618,52.2907774 C39.9349618,52.8879759 39.4507537,53.3714223 38.8526143,53.3714223 C38.2544749,53.3714223 37.7682323,52.8879759 37.7682323,52.2907774 C37.7682323,51.6935789 38.2544749,51.2101326 38.8526143,51.2101326 C39.4507537,51.2101326 39.9349618,51.6935789 39.9349618,52.2907774" id="Fill-726" fill="#FFFFFE"></path>
                <path d="M89.4971201,48.0921065 C89.4971201,52.4004669 87.0211484,55.8942811 83.9653477,55.8942811 C80.9095469,55.8942811 78.4315408,52.4004669 78.4315408,48.0921065 C78.4315408,43.7837461 80.9095469,40.2919632 83.9653477,40.2919632 C87.0211484,40.2919632 89.4971201,43.7837461 89.4971201,48.0921065" id="Fill-727" fill="#46271B"></path>
                <path d="M87.3954942,52.2907774 C87.3954942,52.8879759 86.9112861,53.3714223 86.3131466,53.3714223 C85.7150072,53.3714223 85.2307991,52.8879759 85.2307991,52.2907774 C85.2307991,51.6935789 85.7150072,51.2101326 86.3131466,51.2101326 C86.9112861,51.2101326 87.3954942,51.6935789 87.3954942,52.2907774" id="Fill-729" fill="#FFFFFE"></path>
                <path d="M59.3175275,57.1557105 C54.8233438,57.1557105 49.3281922,73.5522618 59.4741831,73.5522618 C69.6201739,73.5522618 63.8137456,57.1557105 59.3175275,57.1557105" id="Fill-730" fill="#EFA369"></path>
                <path d="M53.4256507,80.4180129 C53.7837206,79.5100275 64.7089203,79.3739312 65.2256802,80.4180129 C65.7424401,81.4620946 64.6478856,86.1645247 59.5392867,86.1645247 C54.4286532,86.1645247 52.6667867,82.3335168 53.4256507,80.4180129" id="Fill-731" fill="#E15D5B"></path>
                <path d="M74.4480136,34.047786 C71.8438691,30.4077191 80.1323726,27.2896931 86.0873185,28.3723692 C92.0442989,29.4530141 96.9148628,32.4247874 96.6442759,34.5881084 C96.373689,36.7493981 89.425913,32.9671412 84.4637972,32.6969799 C81.7070662,32.5466647 75.800948,35.9389145 74.4480136,34.047786" id="Fill-732" fill="#3B3A37"></path>
                <path d="M46.3558055,34.047786 C48.9599499,30.4077191 40.6714464,27.2896931 34.7165005,28.3723692 C28.7615546,29.4530141 23.8889562,32.4247874 24.1595431,34.5881084 C24.43013,36.7493981 31.377906,32.9671412 36.3400218,32.6969799 C39.0967528,32.5466647 45.002871,35.9389145 46.3558055,34.047786" id="Fill-733" fill="#3B3A37"></path>
                <path d="M36.2362629,44.9943934 C36.2362629,46.038475 35.3878815,46.8855219 34.3401203,46.8855219 C33.2943935,46.8855219 32.4460121,46.038475 32.4460121,44.9943934 C32.4460121,43.9482804 33.2943935,43.1012336 34.3401203,43.1012336 C35.3878815,43.1012336 36.2362629,43.9482804 36.2362629,44.9943934" id="Fill-725" fill="#FFFFFE"></path>
                <path d="M83.6967953,44.9943934 C83.6967953,46.038475 82.8484139,46.8855219 81.8026871,46.8855219 C80.7549259,46.8855219 79.9065444,46.038475 79.9065444,44.9943934 C79.9065444,43.9482804 80.7549259,43.1012336 81.8026871,43.1012336 C82.8484139,43.1012336 83.6967953,43.9482804 83.6967953,44.9943934" id="Fill-728" fill="#FFFFFE"></path>
                <path d="M4.2587325,38.5 L18.7070007,34.2184141" id="Line-Copy-2" stroke="#4B4646" stroke-width="2" stroke-linecap="square" transform="translate(11.379366, 36.702770) scale(-1, 1) translate(-11.379366, -36.702770) "></path>
                <path d="M99.5,38.5 L114.948563,34.2184141" id="Line-Copy" stroke="#4B4646" stroke-width="2" stroke-linecap="square"></path>
                <rect id="Rectangle" stroke="#4B4646" stroke-width="2" x="66.1036109" y="38.2653451" width="32.5862933" height="20.3441605" rx="3"></rect>
                <rect id="Rectangle-Copy" stroke="#4B4646" stroke-width="2" x="19.3103906" y="38.2653451" width="32.5862933" height="20.3441605" rx="3"></rect>
                <path d="M52,39.2346244 L66,39.2346244" id="Line" stroke="#4B4646" stroke-width="2" stroke-linecap="square"></path>
            </g>
        </g>
    </g>
</svg>