<svg width="378" height="40" xmlns="http://www.w3.org/2000/svg" xmlns:xlink="http://www.w3.org/1999/xlink"><defs><path id="a" d="M58.362 41.997V.003H.027v41.994z"/><path id="c" d="M58.362 41.997V.003H.027v41.994z"/></defs><g fill="none" fill-rule="evenodd"><path d="M61.018 25.125h6.502V23.51h-1.655v-8.053h.287c1.317 0 1.587.437 2.128 3.278h1.57v-4.674H58.688v4.674h1.57c.541-2.841.812-3.278 2.129-3.278h.286v8.053h-1.654v1.615zm10.91 0h6.03V23.51h-1.47v-3.312h4.02v3.312H79.04v1.615h6.03V23.51H83.7v-7.835h1.368v-1.614h-6.03v1.614h1.47v2.908h-4.02v-2.908h1.47v-1.614h-6.03v1.614h1.368v7.835h-1.369v1.615zm15.252 0h11.046v-4.557h-1.74c-.304 2.354-.523 2.993-2.33 2.993H91.74v-3.228h.81c.795 0 .913.202 1.065 1.48h1.503v-4.524h-1.503c-.186 1.295-.253 1.48-1.064 1.48h-.81v-3.144h2.482c1.47 0 1.756.353 2.111 2.522h1.74V14.06H87.18v1.614h1.368v7.835H87.18v1.615zm17.582-11.064v1.614h1.368v7.835h-1.368v1.615h10.116v-4.76h-1.536c-.693 2.842-.98 3.195-2.297 3.195h-1.723v-7.935h1.588V14.06h-6.148zm12.21 11.064h11.047v-4.557h-1.74c-.303 2.354-.523 2.993-2.33 2.993h-2.416v-3.228h.811c.794 0 .913.202 1.064 1.48h1.503v-4.524h-1.503c-.186 1.295-.254 1.48-1.064 1.48h-.81v-3.144h2.483c1.469 0 1.755.353 2.111 2.522h1.739V14.06h-10.894v1.614h1.368v7.835h-1.368v1.615zm20.944-1.615h-1.402v1.615h6.115V23.51h-1.234l-3.495-9.516h-3.226l-3.446 9.516h-1.233v1.615h4.442V23.51h-1.402l.591-1.765h3.7l.59 1.765zm-2.482-7.213h.066l1.318 3.968h-2.702l1.318-3.968zm17.21 7.23l.727 1.732h1.705v-4.321h1.182v-1.614h-6.113v1.614h1.79v.252c0 .925-.186 1.614-.624 2.051a1.686 1.686 0 0 1-1.25.488c-1.673 0-2.466-1.546-2.466-4.22 0-2.943 1.03-4.22 2.43-4.22 1.234 0 1.994.79 2.569 2.807h2.245v-4.27h-1.705l-.388 1.379c-.675-.908-1.656-1.413-3.091-1.413-2.871 0-5.49 2.387-5.49 5.834 0 3.515 2.297 5.768 5.372 5.768 1.756 0 2.635-.825 3.107-1.867zm11.806 1.867c3.21 0 4.56-1.984 4.56-4.389v-5.33h1.302v-1.614h-4.392v1.614h1.385v4.842c0 1.16-.237 1.95-.692 2.404-.406.404-.946.589-1.69.589-1.52 0-2.347-.656-2.347-2.69v-5.145h1.503v-1.614h-6.064v1.614h1.368v5.447c0 2.708 1.605 4.272 5.067 4.272zm7.718-.27h11.046v-4.556h-1.738c-.305 2.354-.525 2.993-2.332 2.993h-2.416v-3.228h.812c.793 0 .912.202 1.064 1.48h1.502v-4.524h-1.502c-.187 1.295-.253 1.48-1.064 1.48h-.812v-3.144h2.484c1.469 0 1.757.353 2.111 2.522h1.74V14.06h-10.895v1.614h1.37v7.835h-1.37v1.615zm22.48-8.137c-2.566 0-4.982 2.253-4.982 4.993 0 1.95 1.538 3.33 3.699 3.33 2.568 0 4.982-2.254 4.982-4.994 0-1.95-1.536-3.33-3.699-3.33zm.828 2.337c0 1.244-.743 4.825-2.179 4.825-.354 0-.76-.168-.76-1.177 0-1.244.743-4.825 2.163-4.825.37 0 .776.168.776 1.177zm4.037 8.777c1.875 0 3.496-1.126 4.138-4.137l1.115-5.262h2.28l.338-1.312h-2.332l.051-.252c.39-1.816.474-2.757 1.605-2.757a.99.99 0 0 1 .473.1 1.25 1.25 0 0 0-.473.993c0 .689.54 1.125 1.283 1.125.913 0 1.386-.689 1.386-1.396 0-1.059-1.031-1.832-2.838-1.832-2.313 0-3.716 1.328-4.323 4.018h-1.352l-.337 1.312h1.435l-1.402 7.028c-.219 1.11-.44 1.496-1.03 1.462.18-.263.279-.572.286-.89 0-.757-.506-1.127-1.03-1.127-.81 0-1.283.656-1.283 1.362 0 .875.777 1.565 2.01 1.565zm12.836-2.976h4.273V23.51h-1.317v-7.398h.152l3.294 9.03H220l3.142-9.03h.151v7.398h-1.351v1.615h5.911V23.51h-1.367v-7.835h1.367v-1.614h-5.573l-1.976 6.237h-.068l-2.212-6.237h-5.675v1.614h1.335v7.835h-1.335v1.615zm23.612.269c3.344 0 5.827-2.27 5.827-5.835 0-3.547-2.398-5.767-5.827-5.767-3.344 0-5.827 2.287-5.827 5.834 0 3.565 2.399 5.768 5.827 5.768zm.067-1.497c-1.604 0-2.465-1.194-2.465-4.304 0-3.094.725-4.304 2.33-4.304 1.604 0 2.467 1.21 2.467 4.304 0 3.11-.727 4.304-2.332 4.304zm12.077 1.295h2.955l3.58-9.517h1.234v-1.614h-4.443v1.614h1.403l-2.381 6.81h-.101l-2.4-6.81h1.403V14.06h-6.115v1.614h1.233l3.632 9.517zm9.475-.067h11.046v-4.557h-1.74c-.303 2.354-.524 2.993-2.33 2.993h-2.416v-3.228h.811c.793 0 .913.202 1.063 1.48h1.504v-4.524h-1.504c-.185 1.295-.253 1.48-1.063 1.48h-.811v-3.144h2.484c1.468 0 1.755.353 2.11 2.522h1.74V14.06H257.58v1.614h1.367v7.835h-1.367v1.615zm20.943-1.615h-1.402v1.615h6.115V23.51h-1.234l-3.495-9.516h-3.226l-3.446 9.516h-1.234v1.615h4.443V23.51h-1.402l.59-1.765h3.7l.591 1.765zm-2.482-7.213h.066l1.318 3.968h-2.702l1.318-3.968zm9.07 8.828h6.13c3.53 0 4.78-1.312 4.78-3.01 0-1.53-1.03-2.421-3.395-2.707v-.118c2.229-.32 3.057-1.345 3.057-2.555 0-1.261-.828-2.674-4.577-2.674h-5.996v1.614h1.368v7.835h-1.368v1.615zm4.56-6.524v-2.926h1.08c1.385 0 1.74.404 1.74 1.379s-.423 1.546-1.756 1.546h-1.065zm0 4.909v-3.294h1.08c1.537 0 2.044.571 2.044 1.597 0 1.278-.473 1.698-2.01 1.698h-1.115v-.001zm8.478-9.45v1.615h1.367v7.835h-1.367v1.615h10.117v-4.76h-1.537c-.692 2.842-.98 3.195-2.297 3.195h-1.723v-7.935h1.588V14.06h-6.148zm12.212 11.065h11.046v-4.557h-1.74c-.305 2.354-.524 2.993-2.332 2.993h-2.414v-3.228h.81c.794 0 .912.202 1.064 1.48h1.504v-4.524h-1.504c-.185 1.295-.253 1.48-1.064 1.48h-.81v-3.144h2.482c1.47 0 1.757.353 2.111 2.522h1.74V14.06h-10.893v1.614h1.367v7.835h-1.367v1.615zm19.878 0h6.503V23.51h-1.656v-8.053h.288c1.317 0 1.588.437 2.128 3.278h1.571v-4.674h-11.165v4.674h1.571c.54-2.841.812-3.278 2.128-3.278h.288v8.053h-1.656v1.615zM347.5 18.87l-1.907-3.228h1.147v-1.581h-6.012v1.614h1.064l3.276 5.077v2.758h-1.418v1.615h6.03V23.51h-1.42v-2.992l3.125-4.843h1.199v-1.614h-4.441v1.58h1.283L347.5 18.87zm6.554 6.255h6.03V23.51h-1.47v-2.555h1.25c3.463 0 4.932-1.396 4.932-3.447 0-2.102-1.42-3.447-4.932-3.447h-5.81v1.614h1.368v7.835h-1.368v1.615zm4.56-5.75v-3.783h.997c1.418 0 1.84.504 1.84 1.883 0 1.362-.455 1.9-1.84 1.9h-.997zm8.225 5.75h11.046v-4.557h-1.74c-.303 2.354-.523 2.993-2.33 2.993H371.4v-3.228h.812c.793 0 .91.202 1.063 1.48h1.503v-4.524h-1.503c-.186 1.295-.254 1.48-1.063 1.48h-.812v-3.144h2.483c1.47 0 1.756.353 2.11 2.522h1.741V14.06H366.84v1.614h1.368v7.835h-1.368v1.615z" fill-rule="nonzero" fill="#000"/><g transform="translate(-7 -1)"><mask id="b" fill="#fff"><use xlink:href="#a"/></mask><ellipse fill="#FFF" fill-rule="nonzero" mask="url(#b)" cx="29.5" cy="19.727" rx="12.826" ry="12.727"/></g><g transform="translate(-7 -1)"><mask id="d" fill="#fff"><use xlink:href="#c"/></mask><path d="M15.658 1.306c-.122-.037-.045.064-.178.155-.06.04-.148.062-.225.119-.063.046-.185.03-.257.087-.063.05-.017.236-.084.293-.063.053-.268-.048-.333.011-.061.056-.052.19-.114.25-.06.059-.157.084-.216.147-.057.06-.154.092-.21.157-.056.063.077.28.024.346-.053.066-.243.027-.294.096-.049.068-.036.178-.083.25-.046.07-.058.158-.1.231-.043.073-.183.094-.22.17-.038.075-.052.164-.086.242-.033.077-.037.166-.065.246-.028.08-.133.138-.155.22-.022.08.006.177-.01.26-.016.082.005.17-.008.25-.014.083-.134.15-.145.231-.01.083.069.177.06.258-.008.084-.022.166-.028.247-.006.084.036.169.032.25-.004.084-.114.164-.115.246-.001.084.122.167.123.248.002.084.02.165.024.246.004.084-.085.17-.08.252.007.084.012.167.02.247.01.084.09.158.101.238.011.084.042.161.055.24.014.085.026.165.041.243.017.084.14.14.158.216.02.086-.131.204-.111.28.023.086.181.126.203.198.027.09.008.18.03.245.053.15-.126.284-.005.312.119.027.065-.13.182-.23.052-.045.055-.162.124-.223.056-.05.143-.073.207-.132.057-.052.166-.055.228-.113.056-.053.027-.197.087-.256.057-.054.205-.02.264-.08.056-.055.13-.097.187-.156.055-.058.125-.105.18-.165.055-.06.088-.139.142-.2.054-.06.057-.163.11-.225.051-.062.197-.05.248-.113.05-.064-.02-.219.028-.283.048-.066.201-.057.247-.123.046-.068.053-.161.095-.229.044-.07.095-.134.134-.203.04-.072.062-.152.096-.224.035-.074.12-.13.147-.203.028-.077.056-.159.08-.238.023-.079.031-.165.05-.245.018-.08-.175-.197-.161-.278.013-.081.224-.133.233-.214.009-.082-.018-.168-.013-.25.005-.082.083-.163.085-.245 0-.083-.092-.165-.094-.247-.002-.083-.071-.16-.077-.242-.005-.082.038-.167.03-.248-.008-.082-.092-.153-.104-.234-.01-.082.179-.194.166-.274-.014-.082-.095-.153-.111-.233-.016-.082-.08-.153-.098-.232-.019-.082-.143-.135-.163-.213-.02-.082.102-.199.08-.275-.024-.083-.016-.173-.04-.247-.026-.085-.181-.122-.206-.193-.03-.089.029-.197.004-.262-.055-.146.004-.163-.116-.199zm-4.753 5.06c-.128.002-.11.101-.21.227-.044.057-.05.16-.106.237-.046.063-.106.125-.157.2-.044.067-.08.146-.126.221-.043.069-.12.123-.163.199-.041.071-.054.161-.094.238-.039.073-.044.164-.082.241-.036.075-.144.12-.177.198-.034.076-.049.163-.08.242-.03.078-.05.162-.077.243-.026.079.045.187.023.268a3.885 3.885 0 0 0-.06.242c-.018.081-.2.134-.213.218-.013.083.05.179.042.263-.008.083.044.17.042.255-.003.083.08.161.084.246.004.084-.093.17-.083.255.01.083.017.165.03.245.012.083.079.155.093.235.015.083-.107.19-.09.27.017.082.097.15.116.23.02.081.036.163.057.241.022.082-.03.184-.007.262.024.08.253.095.279.172.027.08-.053.193-.024.27.029.078.153.118.183.194.031.078.016.17.049.245.034.078.073.149.108.221.036.077-.02.195.017.267.04.076.161.106.2.176.041.075-.115.26-.074.327.044.076.351-.011.393.054.049.076-.009.209.034.27.054.08.066.174.107.23.096.127.056.185.18.176.122-.01.07-.064.15-.194.036-.058.14-.092.188-.171.038-.064.038-.158.081-.233.038-.067.145-.101.187-.175.037-.068-.129-.248-.09-.322.038-.07.174-.089.212-.163.036-.07.112-.123.148-.197.035-.071.156-.106.191-.18.034-.072-.122-.23-.089-.304.033-.074.081-.14.112-.215.031-.074.047-.153.076-.228.028-.076.23-.091.256-.167.027-.077-.118-.21-.095-.286.024-.078.004-.163.024-.24.02-.08.188-.124.204-.202.016-.08.008-.166.018-.245.011-.081.087-.162.09-.24.004-.082-.029-.17-.03-.253a4.086 4.086 0 0 0-.014-.25c-.008-.082-.047-.164-.06-.245-.011-.081-.202-.13-.219-.21-.016-.08.037-.172.017-.251-.021-.08-.034-.16-.058-.238-.024-.079-.037-.16-.064-.236-.027-.079-.004-.174-.034-.25-.03-.077-.03-.167-.063-.242-.033-.076-.063-.155-.098-.229-.036-.075-.032-.172-.07-.244-.038-.074-.065-.157-.104-.228-.04-.073-.246-.053-.288-.123-.043-.073.013-.201-.03-.27-.045-.072-.118-.125-.162-.19-.048-.073.024-.223-.022-.287-.05-.073-.16-.101-.204-.162-.057-.075-.096-.153-.14-.208-.097-.123-.11-.202-.234-.2zm-2.97 6.371c-.122.04-.075.099-.13.249-.025.067.037.178.007.27-.024.073-.072.145-.098.233-.022.076-.062.152-.084.238-.02.079-.106.146-.125.232-.017.08-.01.169-.025.254-.014.08-.01.168-.022.253-.012.082-.02.166-.029.251-.008.083-.08.164-.086.25-.004.083.089.171.088.256 0 .084.088.164.092.249.003.083-.165.179-.157.263.008.083.14.153.154.237.012.082-.091.188-.073.27.018.082.216.119.24.2.023.08-.062.193-.032.273.029.078.076.15.112.227.035.076.07.151.106.224.037.075.126.122.164.194.04.074-.067.226-.027.297.042.073.164.1.207.17.043.072.062.158.107.227.046.07.069.156.115.224.048.069.131.114.18.18.05.067.13.112.18.176.052.067.051.174.103.236.054.065.14.103.193.164.056.064.174.07.23.128.058.063.099.136.155.193.06.061.077.162.135.217.063.06.138.101.197.154.066.058.144.095.204.145.07.058.067.192.127.239.076.058.232-.01.289.031.13.093.035.206.15.16.114-.045-.05-.072-.014-.22.017-.067.122-.124.143-.214.017-.072-.028-.164-.01-.248.016-.075.115-.137.132-.22.015-.076.085-.145.1-.227.014-.077-.059-.172-.046-.253.013-.078.051-.154.063-.235.012-.078.044-.155.054-.236.01-.08-.006-.163.002-.244.009-.08.122-.151.128-.232.007-.08-.024-.166-.02-.246.005-.08-.116-.166-.115-.246.002-.082.028-.161.027-.24 0-.082.008-.163.003-.242-.005-.082-.097-.152-.106-.23-.01-.082.087-.175.073-.252-.015-.081-.067-.152-.087-.227-.022-.08.077-.198.05-.276-.028-.078-.12-.136-.152-.212-.032-.076.01-.19-.027-.263-.036-.074-.032-.178-.073-.25-.04-.072-.225-.065-.27-.135-.043-.07-.027-.182-.073-.25-.048-.068-.16-.092-.21-.158-.05-.066-.093-.138-.145-.201-.053-.065-.04-.185-.095-.246-.055-.063-.145-.098-.201-.157-.057-.061-.212-.029-.27-.086-.06-.06-.066-.17-.125-.225-.062-.058-.093-.147-.154-.2-.063-.057-.207-.02-.269-.071-.065-.056-.09-.153-.152-.203-.069-.054-.126-.116-.188-.163-.071-.054-.084-.178-.145-.222-.077-.055-.21-.015-.268-.054-.13-.088-.09-.218-.208-.18zm-.803 7.053c-.103.074-.044-.007-.052.153-.003.071.031.155.03.25 0 .078-.041.161-.039.252.002.08-.021.164-.016.252.005.081.004.166.012.253.008.08.055.16.066.245.011.081.011.165.026.25.014.082.11.146.128.23.018.081-.1.194-.079.276.021.08.068.156.093.238.025.08.164.12.193.2.03.078.004.174.038.252.033.077.104.133.142.208.038.076-.04.21.003.284.042.073.074.156.121.226s.145.107.197.174c.052.066.03.2.087.263.056.062.194.05.251.11.059.06.09.146.148.204.06.058.177.058.237.113.062.057.069.173.13.227.064.055.151.082.215.134.065.054.204.013.269.063.067.052.024.242.09.29.069.05.116.13.184.177.07.048.197.012.265.056.072.046.139.096.208.138.073.044.131.11.202.15.075.042.162.057.234.095.076.04.15.08.221.115.079.038.18.017.253.05.08.036.131.126.204.156.084.034.147.104.218.13.09.034.18.032.247.053.153.05.182.174.278.096.095-.077-.015-.131-.025-.283-.004-.069.091-.158.084-.25-.006-.073-.154-.142-.162-.228a16.645 16.645 0 0 0-.026-.24c-.009-.077.066-.167.055-.25-.01-.077-.091-.148-.103-.23-.012-.077-.008-.16-.021-.24-.013-.079-.067-.151-.082-.231-.015-.079.003-.164-.014-.243-.016-.079-.078-.148-.096-.227-.018-.078-.016-.16-.036-.239-.02-.078-.033-.158-.056-.235-.023-.078-.013-.166-.04-.242-.025-.077-.02-.167-.048-.241-.03-.077-.071-.15-.104-.223-.034-.075-.163-.103-.2-.172-.039-.074-.067-.146-.11-.212-.045-.07-.017-.19-.066-.256-.05-.066-.099-.137-.152-.2-.054-.063-.166-.075-.224-.135-.057-.06-.143-.09-.203-.146-.06-.056-.039-.204-.102-.257-.063-.054-.186-.038-.251-.089-.066-.05-.18-.033-.248-.081-.067-.048-.011-.275-.08-.32-.07-.046-.167-.055-.238-.098-.071-.043-.192-.004-.264-.044-.073-.041-.095-.177-.167-.215-.075-.039-.196.011-.27-.024-.076-.037-.125-.129-.2-.162-.078-.035-.173-.026-.248-.058-.08-.033-.186.008-.26-.021-.082-.032-.149-.086-.223-.112-.084-.03-.141-.118-.213-.142-.09-.03-.199.037-.266.017-.151-.045-.044-.106-.145-.034zm1.246 6.795c-.075.102.008.048.05.202.018.07.01.159.039.25.023.074.028.162.059.247.026.075.148.12.18.203.03.075.03.164.065.244.032.075-.057.207-.02.286.036.074.207.085.247.161.039.074.089.14.131.214.042.072.049.163.094.236.045.07.128.114.177.184.048.069.025.188.077.255.052.066.107.131.163.196.055.063.1.137.16.198.06.06.07.176.132.234.063.056.12.13.187.184.067.052.187.043.258.091.07.048.2 0 .274.044.073.042.114.135.186.174.074.04.144.087.218.124.075.038.13.115.205.15.076.036.185.002.26.035.078.034.135.112.211.143.079.032.161.051.239.08.079.029.179-.002.256.024.081.027.127.154.206.178.081.025.168.031.246.053.083.023.2-.097.279-.078.083.02.136.157.215.174.084.018.177-.02.256-.005.085.015.164.046.243.058.086.013.161.08.24.09.088.01.179-.053.257-.047.09.008.173-.003.25 0 .095.006.177-.007.247-.007.16.002.13.139.197.035.067-.101.042-.059-.014-.2-.025-.064-.11-.118-.145-.203-.029-.068-.081-.134-.115-.213-.03-.07.053-.194.018-.271-.032-.071-.133-.115-.169-.19-.033-.071-.093-.131-.13-.206-.035-.07-.028-.164-.065-.237-.036-.07-.185-.084-.224-.156-.037-.07.018-.19-.022-.262-.04-.07-.093-.132-.135-.201-.042-.07-.162-.09-.206-.158-.043-.068-.042-.163-.087-.23-.046-.066-.067-.149-.114-.213-.049-.066-.08-.143-.13-.205-.052-.064-.092-.136-.145-.196-.056-.061-.084-.148-.141-.203-.06-.058-.177-.05-.238-.1-.064-.053-.08-.167-.148-.215-.067-.049-.203.006-.274-.038-.07-.044-.091-.167-.164-.206-.073-.04-.138-.098-.213-.134-.075-.036-.166-.04-.242-.072-.077-.033-.136-.112-.214-.14-.078-.03-.174-.013-.253-.039-.079-.026-.145-.1-.224-.122-.08-.023-.184.038-.264.019-.082-.02-.165-.03-.245-.046-.083-.017-.137-.177-.218-.192-.083-.014-.187.09-.268.078-.084-.012-.165-.033-.246-.042-.085-.01-.173.038-.254.03-.086-.008-.168-.002-.248-.007-.088-.006-.165-.127-.243-.13-.09-.004-.175-.016-.25-.017-.096-.001-.18.105-.25.106-.159.002-.13-.097-.204.001zm3.314 6.143c-.041.12.02.052.108.187.038.06-.023.203.032.282.045.064.272.007.327.08.048.063.065.153.121.222.051.063-.037.246.02.312.054.062.174.074.233.137.056.06.091.147.153.208.059.058.23.005.292.063.062.056.069.173.135.228.064.054.117.124.185.176.067.05.15.08.221.129.07.048.131.108.204.153.072.044.169.046.244.086.075.04.131.114.209.15.077.035.15.082.23.113.079.03.164.048.246.073.08.025.162.055.246.074.082.018.156.073.237.09.083.015.184-.068.265-.054.084.013.153.107.235.118.084.011.165.047.247.056.085.01.173-.016.255-.01.084.007.166.065.248.07.085.004.174-.124.256-.122.085.001.167-.051.249-.052.085 0 .167.054.25.051.085-.003.167.005.249 0 .085-.006.172.04.253.032.086-.008.173.008.253-.002.086-.01.147-.168.226-.18.086-.014.164-.033.242-.048.087-.016.158-.064.234-.081.09-.02.23.208.304.19.093-.025.14-.171.207-.192.154-.046.238.065.27-.054.033-.116-.135-.036-.232-.155-.043-.053.006-.198-.053-.269-.048-.057-.133-.093-.19-.158-.05-.058-.12-.104-.177-.168-.052-.058-.046-.173-.103-.235-.053-.057-.065-.159-.122-.219-.055-.057-.12-.11-.178-.169-.057-.056-.278.048-.337-.01-.057-.055-.09-.136-.15-.191-.059-.055-.099-.13-.16-.184-.06-.053-.015-.23-.077-.283-.063-.052-.186-.035-.25-.085s-.178-.036-.243-.083c-.067-.049-.102-.139-.169-.183-.069-.046-.129-.106-.198-.146-.07-.043-.152-.069-.223-.105-.074-.037-.16-.045-.234-.075-.077-.03-.135-.117-.214-.143-.08-.026-.154-.083-.234-.104-.08-.02-.175 0-.256-.017-.082-.016-.187.111-.27.1-.082-.013-.162-.005-.244-.013-.083-.007-.15-.22-.234-.224-.083-.005-.17 0-.253 0-.084-.002-.168.084-.25.087-.084.002-.17-.022-.252-.016-.084.005-.155.139-.237.147-.084.008-.177-.083-.258-.072-.084.01-.17.003-.25.016-.084.013-.153.103-.233.118-.084.016-.163.036-.242.053-.084.018-.163.043-.24.061-.085.021-.162.051-.238.072-.086.023-.17.03-.242.053-.091.027-.203-.048-.27-.026-.15.049-.133.025-.173.141zm4.923 4.867c-.003.126.229-.038.353.065.055.045.034.202.111.26.062.048.08.167.155.22.066.046.169.05.243.1.068.044.199-.002.274.044.07.043.145.08.22.122.073.04.08.2.158.24.074.038.19-.003.268.034.076.035.165.039.245.072.078.032.15.073.23.103.08.028.17.018.251.043.08.025.103.262.186.282.082.021.18.003.264.019.083.016.175.01.26.02.084.01.185-.153.27-.148.085.006.163.11.249.11.085-.001.163-.081.249-.088.084-.007.167.007.25-.002.083-.01.18.093.263.081.083-.011.177.028.258.014.084-.014.175 0 .256-.015.083-.017.122-.235.202-.253.083-.02.168-.017.248-.038.082-.021.178.013.257-.01.082-.023.16-.055.238-.08.08-.026.15-.078.228-.105.08-.028.153-.07.23-.098.08-.031.201.044.276.013.08-.034.097-.198.17-.232.08-.035.195.013.267-.022.078-.039.14-.1.21-.137.079-.041.085-.196.152-.235.079-.045.192-.015.256-.055.081-.05.191-.036.25-.075.131-.09.281-.053.276-.176-.005-.12-.18-.028-.309-.112-.058-.038-.154-.038-.233-.088-.063-.04-.142-.065-.216-.11-.066-.04-.022-.266-.096-.31-.067-.039-.244.099-.317.057-.069-.039-.142-.071-.215-.11-.07-.039-.09-.169-.164-.207-.07-.037-.085-.19-.158-.226-.072-.036-.214.062-.287.027-.074-.035-.138-.09-.212-.123-.075-.034-.145-.076-.22-.107-.076-.031-.165-.03-.24-.058-.078-.03-.117-.165-.193-.191-.078-.026-.196.068-.273.046-.08-.023-.13-.16-.208-.179-.08-.019-.2.162-.28.149-.082-.014-.147-.115-.226-.12-.083-.008-.166.064-.25.063-.082 0-.165-.084-.248-.08-.083.005-.157.094-.24.103-.082.009-.166-.015-.248-.002-.082.013-.174-.028-.255-.011-.082.017-.155.07-.235.09-.081.02-.16.044-.24.069-.08.024-.183-.022-.26.005-.08.027-.161.053-.238.083-.078.03-.165.044-.24.076-.078.033-.11.166-.184.2-.076.036-.184.006-.257.043-.076.037-.15.077-.222.115-.075.04-.128.116-.198.155-.075.043-.07.211-.138.252-.075.045-.208-.014-.274.029-.075.048-.203.008-.266.05-.078.054-.21.018-.268.058-.127.092-.163.168-.165.291zM42.486 1.502c-.024.065.03.171 0 .26-.025.071-.128.124-.155.21-.023.073-.092.14-.116.224-.022.076.145.205.124.287-.02.078-.13.134-.15.216-.017.079-.161.134-.178.216-.015.08.02.171.005.254-.013.08-.056.159-.067.241-.011.08.02.169.011.251-.008.082.007.166.002.249-.006.081.024.165.022.247-.003.082.055.163.056.245.001.082.003.161.008.243.005.082-.123.175-.113.257.008.081-.006.17.007.251.014.081.145.141.163.221.018.08.08.146.103.225.023.08-.046.186-.018.263.027.074.08.14.115.215.034.072-.019.192.021.264.04.07.211.065.255.135.043.067.136.1.183.167.045.066.005.19.054.256.048.064.125.107.176.17.05.064.067.153.12.215.052.062.037.182.09.242.055.061.226.02.28.079.056.06.039.185.094.243.057.059.217.018.273.074.058.059-.073.302-.016.357.06.058.134.102.19.156.062.058.18.055.236.107.064.059.193.039.249.088.069.062.102.146.154.191.117.1.08.239.198.211.122-.028.166-.086.218-.236.023-.065-.096-.193-.068-.284.021-.072-.051-.176-.028-.263.02-.075.083-.142.103-.227.018-.077.102-.143.118-.228.015-.078.037-.158.05-.243.014-.078.063-.156.075-.24.01-.08.014-.164.023-.248.008-.08-.036-.168-.03-.252.006-.08.083-.16.086-.244.004-.081-.14-.168-.139-.252.001-.081.18-.164.18-.248-.002-.082-.152-.16-.156-.245-.003-.081.083-.169.077-.252-.006-.082-.072-.16-.08-.243-.01-.081-.082-.155-.093-.238-.01-.08-.013-.162-.027-.244-.013-.08-.065-.153-.08-.235-.017-.083.094-.192.072-.273-.022-.082.016-.186-.012-.265-.028-.08-.18-.115-.213-.192-.033-.078-.006-.183-.044-.258-.038-.076-.056-.165-.098-.238-.043-.074-.071-.16-.117-.23-.047-.071-.176-.089-.225-.156-.05-.07-.124-.118-.177-.184-.053-.067-.104-.132-.159-.195-.056-.065-.028-.205-.085-.265-.06-.063-.166-.08-.225-.138-.062-.06-.052-.197-.113-.252-.064-.06-.28.053-.342 0-.068-.058-.04-.222-.102-.272-.072-.057-.166-.077-.228-.123-.078-.057-.185-.053-.244-.094-.133-.09-.053-.228-.175-.191-.12.035-.062.071-.118.218zm4.645 5.065c-.043.055-.072.14-.128.216-.046.06-.067.149-.118.221-.045.064-.133.107-.181.18-.044.065.003.193-.043.266-.043.068-.219.06-.262.133-.041.07-.094.139-.134.213-.04.07.096.236.057.31-.037.072-.154.107-.19.182-.035.074.06.205.027.281-.033.075-.158.11-.188.188-.03.076-.165.117-.192.195-.028.077.055.192.03.27-.023.08-.208.117-.228.197-.02.08.186.212.17.293-.017.08-.119.145-.13.226-.013.082-.043.162-.05.244-.007.082-.02.166-.022.248-.002.082-.065.17-.061.252.003.078.028.165.039.246.01.079.136.142.152.222.016.078-.022.17-.002.249.02.077.173.117.196.195.024.076-.068.188-.041.265.026.076.052.153.081.229.029.075.012.17.043.244.03.075.082.142.115.216.033.074.111.128.145.2.034.074.14.113.175.185.036.073-.006.183.03.253.038.074.054.157.091.226.04.074.159.101.197.17.04.073-.031.206.007.272.043.075.136.116.174.18.047.079.1.142.136.2.08.13-.002.247.12.257.124.009.028-.14.124-.267.042-.056.083-.127.137-.205.043-.062.202-.059.25-.135.042-.065.087-.138.132-.214.04-.067.08-.143.122-.219.038-.07-.018-.192.021-.269.037-.071.004-.177.04-.254.035-.073.204-.087.238-.165.033-.073.047-.158.079-.237.03-.075.124-.13.153-.209.028-.076-.088-.204-.061-.284.026-.077.238-.098.263-.179.024-.078 0-.173.023-.254.021-.08-.095-.194-.076-.276.02-.08.121-.141.138-.223.017-.08-.143-.193-.128-.275.015-.08.09-.149.103-.232.012-.08.21-.138.22-.22.01-.085-.036-.179-.032-.262.004-.085-.013-.173-.015-.256-.002-.085.02-.174.012-.257-.007-.084-.077-.163-.09-.246-.014-.083-.003-.172-.02-.254-.018-.083-.103-.149-.125-.23-.023-.081.077-.2.051-.28-.027-.08-.142-.132-.171-.21-.031-.08.108-.23.075-.307-.034-.078-.368-.023-.404-.098-.037-.077-.013-.179-.052-.252-.04-.076.023-.206-.018-.277-.044-.076-.106-.139-.15-.208-.046-.075-.197-.078-.242-.145-.05-.075-.023-.195-.068-.258-.057-.077-.172-.096-.216-.153-.1-.126.032-.238-.096-.24-.124-.002-.135.004-.232.126zm3.078 6.238c-.014.06-.023.08-.078.117-.059.04-.105.116-.182.171-.061.044-.22-.027-.292.027-.062.047-.063.18-.132.235-.062.05-.154.07-.22.125-.061.052-.082.153-.145.21-.06.054-.123.107-.184.165-.06.056-.147.086-.206.145-.058.058-.156.08-.214.141-.056.06-.105.13-.16.192-.055.061-.103.131-.156.196-.052.063-.055.166-.105.232-.05.065-.058.159-.105.227-.047.067-.178.08-.222.15-.044.07-.08.147-.12.22-.04.071-.025.172-.061.246-.037.074-.098.136-.13.212-.032.075-.098.14-.126.218-.027.077-.03.165-.05.244a2.482 2.482 0 0 0-.051.237c-.015.078-.047.156-.056.238-.009.079-.079.157-.084.239-.005.08.167.167.166.248-.001.08-.032.159-.03.24.002.08-.07.163-.066.244.005.08.037.16.043.24.006.08-.053.167-.045.247.009.08-.004.165.006.244.01.081.072.155.083.234.012.08.039.159.052.237.013.081-.056.176-.042.253.015.082.184.133.199.209.017.083.007.166.024.24.018.086.006.17.023.243.02.09-.02.183-.004.25.037.148.035.133.148.179.116.046.073.008.204-.085.057-.04.119-.098.194-.156.06-.047.14-.082.21-.14.06-.05.137-.09.203-.148.06-.053.104-.128.167-.188.058-.055.09-.141.15-.202.057-.057.142-.091.2-.154.055-.059.141-.096.198-.16.053-.06.019-.197.073-.262.052-.063.095-.132.147-.199.05-.064.188-.065.238-.133.049-.066.106-.129.154-.198.047-.068.043-.17.089-.241.044-.069.048-.163.092-.235.042-.07.217-.066.259-.138.04-.071-.041-.21-.002-.285.038-.072.067-.149.104-.224.036-.073.11-.13.145-.205.035-.078.14-.13.17-.208.029-.08-.06-.198-.036-.279.023-.081.078-.153.096-.234a4.12 4.12 0 0 0 .048-.248c.013-.084-.028-.172-.02-.255.008-.085.027-.165.03-.249.004-.085.039-.167.038-.25 0-.085.174-.179.17-.262-.005-.085-.08-.17-.088-.252-.009-.085-.09-.163-.1-.245-.013-.085-.105-.155-.12-.236-.015-.086.036-.18.018-.26-.018-.086-.054-.164-.074-.243-.022-.086-.04-.169-.062-.245-.025-.087-.066-.163-.09-.237-.03-.091-.081-.163-.106-.23-.056-.15.095-.311-.026-.351-.068-.023-.132.06-.15.142zm.768 6.967c-.068.02-.178-.047-.268-.017-.072.023-.09.224-.174.254-.074.027-.17.004-.252.035-.074.03-.128.112-.207.146-.075.03-.2-.05-.279-.015-.074.033-.088.194-.164.231-.074.036-.188-.01-.263.028-.073.038-.155.06-.229.1-.071.04-.129.105-.2.148-.071.043-.165.049-.235.095a6.795 6.795 0 0 0-.206.14c-.067.048-.158.067-.223.118-.066.05-.13.107-.193.16-.063.054-.106.131-.167.188-.06.056-.107.127-.164.187-.057.06-.06.164-.114.227-.054.063-.156.085-.205.151-.05.066-.056.159-.101.228-.043.066-.041.153-.08.226-.037.07-.188.084-.222.16-.032.072-.037.158-.066.234-.03.075-.14.123-.167.2-.026.076.103.2.08.279-.023.077-.195.114-.216.192-.02.078.125.196.107.275-.019.078-.07.148-.087.227-.016.079.01.165-.004.243-.015.08-.175.134-.188.213-.014.08.007.166-.005.244-.012.081.019.166.009.244l-.027.24c-.01.083-.089.157-.096.232-.009.087.073.175.067.248-.008.092-.163.163-.167.231-.01.152.003.17.097.246.096.079.087-.013.24-.062.066-.022.138-.069.228-.102.071-.026.152-.048.236-.083.072-.03.151-.057.232-.093.073-.033.13-.104.209-.143.071-.035.184 0 .26-.04.072-.037.187-.006.262-.048.07-.04.053-.234.126-.278.07-.042.195 0 .267-.046.068-.044.13-.104.2-.152.067-.047.176-.04.245-.09.066-.049.077-.174.144-.225.065-.05.11-.127.175-.18.064-.053.14-.091.204-.147.062-.053.116-.117.178-.174.06-.056.177-.055.238-.114.058-.057.03-.2.09-.26.056-.06.07-.156.126-.218.057-.064.203-.049.255-.115.052-.067.094-.141.141-.211.048-.07.088-.145.13-.218.043-.073.052-.163.09-.238.038-.076.115-.132.148-.21.033-.077.103-.142.132-.22.03-.08.022-.174.047-.253.025-.082.144-.14.165-.22.022-.082-.147-.209-.13-.29.019-.084.157-.142.172-.224.014-.084.034-.168.045-.25.012-.085.02-.17.028-.252.008-.087.064-.17.069-.25.005-.089.007-.176.009-.256.002-.09-.18-.177-.181-.254-.001-.096.128-.184.125-.255-.008-.16-.032-.076-.135-.15-.1-.073-.01-.062-.161-.017zm-1.29 6.793c-.07-.001-.152.011-.247.013-.076 0-.158.038-.247.042-.079.003-.166-.075-.254-.07-.08.006-.168-.037-.254-.03-.08.008-.157.08-.242.09-.08.01-.158.058-.242.07-.08.013-.16.03-.244.045-.08.014-.169-.005-.251.012-.08.017-.163.03-.245.05-.08.019-.155.06-.235.082-.08.023-.163.032-.243.058-.079.025-.192-.04-.27-.011-.078.028-.13.128-.207.16-.076.032-.117.14-.192.176-.075.036-.205-.034-.277.006-.073.04-.153.075-.223.119s-.016.266-.084.314c-.067.048-.188.017-.252.07-.06.05-.196.023-.255.081-.057.056-.028.194-.083.255-.054.06-.087.133-.139.197-.05.062-.154.083-.202.149-.048.064-.172.08-.218.146-.045.067.018.204-.026.273-.043.068-.067.147-.109.216-.041.07-.177.085-.217.155-.04.07.019.194-.019.265-.039.072-.159.1-.195.171-.037.073-.124.122-.159.193-.036.074-.09.14-.124.21-.036.076.026.193-.006.263-.035.078-.105.136-.135.206-.034.08-.082.148-.11.217-.036.084-.086.153-.111.217-.056.142-.039.125.028.226.067.104.047.06.207.058.07 0 .157.037.253.032.076-.004.148-.166.239-.174.078-.007.172.106.26.095.08-.01.164-.018.25-.03.08-.013.141-.14.226-.156.08-.015.176.042.26.024.079-.017.156-.05.24-.07.079-.02.152-.066.234-.088.079-.022.145-.084.227-.11.078-.023.187.044.267.016.078-.026.165-.031.245-.06.077-.03.14-.098.219-.13.076-.03.186.013.264-.021.075-.033.174-.025.25-.06.075-.036.128-.123.203-.161.073-.038.105-.155.18-.195.072-.04.16-.052.233-.094.074-.043.17-.056.24-.104.07-.048.108-.14.175-.193.066-.053.17-.066.232-.123.063-.057.184-.063.243-.123.06-.061-.042-.268.014-.331.055-.064.165-.082.216-.149.053-.067.154-.1.202-.168.049-.07-.035-.224.01-.295.045-.072.107-.13.148-.202.043-.074.2-.085.238-.159.04-.076.058-.162.094-.237.037-.078.054-.164.086-.24.035-.08.16-.123.189-.198.032-.083-.037-.2-.01-.275.03-.086-.034-.193-.011-.267.028-.092.238-.12.256-.19.042-.154.13-.238.053-.34-.073-.098-.184.084-.342.082zm-3.298 6.063c-.066-.022-.162.007-.253-.02-.073-.022-.12-.163-.206-.186-.076-.02-.21.163-.295.142-.077-.018-.139-.11-.223-.127-.08-.017-.128-.196-.212-.211-.08-.015-.173.02-.257.007-.08-.013-.157-.078-.241-.09-.081-.01-.178.09-.262.081-.082-.008-.155-.161-.239-.166-.082-.006-.173.073-.257.07-.083-.002-.167.085-.25.086-.083 0-.166-.006-.25-.001-.082.004-.173-.086-.256-.079-.083.008-.165.051-.247.063-.083.012-.172-.003-.254.013-.082.016-.152.09-.233.112-.08.02-.174.002-.253.028-.08.025-.113.17-.19.202-.074.03-.168.011-.243.048-.07.036-.208-.035-.28.007-.068.04-.09.165-.158.21-.067.045-.104.133-.17.181-.066.047-.149.073-.213.123s-.157.066-.22.119c-.062.052-.054.183-.114.237-.061.054-.117.111-.176.166-.06.055-.11.118-.168.174-.06.057-.164.066-.22.122-.058.059-.121.11-.176.168-.058.06-.131.102-.185.16-.057.06-.071.157-.123.215-.057.063-.118.117-.168.175-.057.066-.093.141-.14.198-.06.07-.152.1-.196.153-.097.119-.134.07-.101.186.032.12.051.015.205.062.067.02.155.007.248.03.074.02.167-.023.255-.003.077.017.12.209.208.225.078.014.174-.052.26-.04.08.013.15.12.235.131.08.01.169-.012.254-.004.081.008.165.018.25.023.082.005.164.075.25.078.081.003.168-.09.254-.09.082 0 .165-.035.25-.037.082-.001.167.042.252.038.082-.004.168.018.253.011.082-.006.165-.03.25-.039.081-.009.164-.024.248-.036.082-.011.156-.079.24-.093.08-.013.18.064.264.048.08-.016.174.013.257-.006.084-.019.147-.13.227-.155.083-.025.174-.028.253-.059.08-.03.14-.109.217-.144.078-.036.096-.18.17-.22.076-.04.231.063.303.019.073-.045.152-.085.22-.133.071-.049.134-.11.2-.162.069-.052.133-.11.197-.164.066-.055.031-.217.093-.274.063-.058.131-.104.19-.163.061-.06.179-.063.235-.124.06-.063.068-.166.122-.228.057-.066.25-.019.3-.082.056-.07.116-.135.164-.199.055-.073-.054-.254-.01-.318.055-.078.22-.07.26-.13.086-.136.102-.114.061-.234-.04-.116-.056-.045-.206-.094zm-4.995 4.805c-.057-.04-.13-.083-.208-.136-.063-.043-.15-.061-.226-.11-.066-.042-.08-.175-.156-.22-.068-.041-.188-.006-.263-.048-.07-.04-.122-.117-.198-.157-.071-.038-.236.1-.312.063-.073-.037-.075-.215-.152-.25-.074-.035-.131-.112-.209-.145-.075-.032-.197.045-.275.014-.077-.029-.162-.03-.241-.057-.078-.027-.104-.212-.184-.236-.079-.024-.207.12-.287.1-.08-.021-.145-.095-.226-.112-.081-.018-.166-.004-.248-.018-.082-.013-.144-.167-.227-.176-.083-.01-.172.023-.255.018-.083-.004-.17-.124-.253-.124-.082.002-.166.132-.249.139-.079.006-.17-.031-.251-.018-.08.013-.151.082-.232.1-.078.019-.197-.092-.276-.07-.078.023-.093.248-.172.275-.076.025-.136.092-.212.12-.076.03-.144.07-.22.101-.075.031-.168.015-.242.048-.075.034-.154.053-.227.088-.075.034-.186-.007-.259.029-.073.036-.15.065-.221.103-.074.038-.087.182-.157.22-.073.04-.128.104-.197.143-.073.042-.2-.013-.267.027-.073.043-.163.053-.228.093-.075.046-.115.135-.178.175-.078.05-.188.032-.246.07-.128.084-.212.067-.217.188-.005.123.035.18.167.27.058.04.18.015.262.066.064.04.201-.025.28.02.067.04.135.085.213.126.07.037.133.094.211.132.072.036.144.077.222.112.074.034.09.205.17.238.074.032.252-.181.332-.15.076.029.075.262.156.29.077.027.192-.05.273-.024.078.025.165.024.246.048.08.023.131.145.214.167.08.02.165.025.248.043.08.019.191-.103.275-.086.08.016.167-.015.25 0 .082.013.133.21.217.223.082.01.177-.08.261-.07.082.008.15.182.234.188.085.007.178-.04.263-.04.085 0 .169-.068.254-.074.085-.005.164-.046.248-.057.085-.01.148-.112.231-.128.084-.016.21.166.291.145.084-.02.16-.074.24-.099.082-.025.133-.137.212-.166.08-.029.144-.088.222-.12.08-.033.227.088.303.053.078-.037.089-.206.163-.244.077-.04.186-.013.259-.054.076-.043.16-.066.231-.11.075-.045.178-.047.246-.092.075-.049.096-.169.161-.215.075-.053.165-.075.227-.122.077-.059.156-.098.212-.144.124-.102.255-.075.252-.201-.002-.123-.147-.07-.275-.162zm-8.882 1.75c-.057-.04-.097-.127-.176-.18-.064-.041-.086-.162-.163-.209-.067-.041-.151-.068-.227-.111-.07-.04-.18-.016-.256-.056-.072-.037-.193.021-.27-.016-.073-.035-.12-.125-.198-.159-.075-.032-.153-.058-.232-.088-.076-.03-.148-.07-.228-.098-.078-.026-.115-.182-.196-.206-.08-.024-.171-.017-.253-.038-.08-.02-.186.062-.268.045-.081-.017-.145-.136-.228-.149-.082-.013-.177.064-.261.055-.082-.009-.161-.073-.245-.077-.083-.005-.168-.003-.252-.003-.084 0-.163.129-.245.133-.084.005-.171-.072-.254-.063-.084.01-.18-.064-.261-.05-.083.012-.144.144-.225.16-.083.018-.156.06-.236.08-.081.021-.156.05-.235.074-.08.024-.185-.028-.262-.002-.08.028-.139.107-.215.137-.079.03-.18.002-.256.035-.078.033-.108.162-.181.197-.078.036-.165.044-.236.081-.077.04-.207-.024-.277.015-.076.043-.084.192-.15.233-.077.047-.194.019-.257.06-.08.053-.113.15-.17.19-.129.093-.16-.001-.161.122 0 .123-.013.09.116.182.057.041.16.041.238.093.064.042.08.174.156.22.067.041.2-.015.276.028.07.04.094.167.171.207.071.037.202-.035.28.002.072.035.114.14.193.174.074.033.177.003.256.034.076.03.134.112.214.14.077.026.17.01.25.035.08.024.152.071.234.092.08.02.18-.047.262-.03.08.016.128.216.212.23.081.013.17.016.254.025.082.008.174-.072.258-.067.083.004.167.015.25.015.085 0 .168-.02.25-.025.084-.004.166-.02.248-.029.084-.009.165-.028.246-.04.084-.014.18.046.261.029.083-.017.146-.112.226-.132.082-.021.155-.064.233-.088.081-.024.164-.033.242-.06.08-.028.118-.152.195-.182.079-.031.215.083.29.05.078-.033.216.059.29.024.077-.037.073-.234.144-.27.077-.04.083-.195.153-.234.076-.043.253.093.32.052.076-.046.166-.067.229-.109.08-.052.123-.14.18-.181.128-.092.075-.062.076-.185 0-.123-.001-.02-.129-.111zM24.848 25.23c.013.055.054.12.077.215s.027.157.042.205c.016.05.15.057.15.157 0 .098-.045.135-.074.184-.028.05-.129.111-.129.21 0 .098.205.124.217.173.012.05-.181.122-.181.22 0 .09.04.137.025.186-.017.06.043.097.124.169.089.079.133.124.197.104.055-.016.11-.142.212-.142.111 0 .183.19.238.183.056-.006.096-.187.207-.187.112 0 .198-.044.254-.029.055.016.08.271.191.271s.187-.014.243-.022c.056-.01.09-.193.201-.193.111 0 .17.04.226.05.056.01.108.069.219.069.11 0 .181.019.237.006.055-.014.096-.162.207-.162.111 0 .164.12.22.124.055.003.114.08.225.08.11 0 .164-.185.22-.187.055-.002.113.05.224.05s.167-.027.222-.026c.056 0 .111.155.222.155s.165-.068.221-.066c.056.001.112.01.223.01s.146-.183.202-.192c.056-.009.132.12.243.12.11 0 .17-.06.226-.054.056.004.107.046.217.046.111 0 .207-.07.262-.049.056.02.071.097.183.097.11 0 .17.027.226-.002.055-.029.107-.136.218-.136s.126.18.182.206c.055.027.151-.007.262-.007.111 0 .2.05.255.032.055-.02.078-.02.19-.02.11 0 .164-.15.22-.154.055-.003.113.058.224.058.101 0 .14.06.19.078.058.02.081-.083.17-.163.081-.071.228-.08.218-.132-.009-.045-.156-.08-.156-.171 0-.099-.023-.135-.04-.185-.017-.049-.072-.11-.072-.21 0-.098.103-.146.106-.195.004-.05-.135-.1-.135-.198 0-.099.153-.143.165-.192a.722.722 0 0 0 .026-.202c0-.09.078-.13.095-.182.02-.062-.134-.049-.211-.123-.078-.076-.06-.232-.122-.218-.055.011-.103.007-.198.007-.102 0-.13.17-.18.191-.051.022-.125-.056-.227-.056-.102 0-.19.08-.241.05-.05-.03-.065-.023-.167-.023-.101 0-.144-.043-.195-.034-.051.008-.11-.033-.211-.033-.092 0-.166 0-.217.021-.061.026-.087.062-.164-.018-.08-.085-.16-.165-.133-.228.023-.053.048-.078.048-.176 0-.107.01-.135-.013-.189-.023-.053.132-.132.132-.24 0-.106-.209-.184-.196-.238.013-.054.186-.082.186-.189s-.15-.177-.142-.23c.01-.054.196-.09.196-.197 0-.107-.055-.177-.078-.23-.022-.054-.119-.09-.119-.198 0-.107.11-.15.118-.204.007-.054.035-.116.035-.223s-.19-.205-.17-.258c.02-.054.031-.063.031-.17 0-.106.062-.145.047-.199-.015-.053-.058-.121-.058-.228 0-.107 0-.157-.003-.21-.003-.053.132-.11.132-.217s-.128-.194-.107-.247c.02-.054.214-.074.214-.18 0-.107-.135-.149-.163-.202-.028-.054.064-.119.064-.226 0-.107-.112-.165-.1-.218.01-.054.037-.102.037-.209s-.057-.167-.052-.22c.006-.054.13-.1.13-.207a.84.84 0 0 0-.024-.228c-.015-.053-.198-.093-.198-.2 0-.106.153-.159.154-.212.001-.053-.161-.107-.161-.215 0-.107.125-.16.129-.214.004-.053.092-.106.092-.213s-.064-.16-.058-.213a2.01 2.01 0 0 0 .008-.214c0-.107-.041-.158-.047-.211-.005-.054.012-.11.012-.217 0-.106.004-.16-.005-.214-.008-.053.056-.106.056-.213s0-.146.011-.2c.012-.053.088-.12.088-.227 0-.107-.15-.158-.162-.211-.012-.054-.114-.11-.114-.216 0-.107.18-.143.195-.197.014-.053.061-.123.061-.23 0-.1-.201-.143-.23-.208-.033-.074-.004-.18.069-.269.06-.073.129-.028.2-.009.06.017.134-.002.215-.002.078 0 .153.083.227.083.079.001.145.053.216.06.078.007.199-.216.27-.197.077.02.094.24.163.26.074.023.074.09.131.14.057.049.193.01.253.052.059.043.164.012.233.05a.61.61 0 0 1 .181.174c.042.057-.021.183.017.253.034.064.044.139.077.21.03.063.217.081.232.159.014.07.044.126.07.199.024.067-.155.204-.13.277.021.067.064.128.086.202.02.069.04.151.07.222.03.067.056.122.075.196.017.07.077.13.091.204.013.071.024.147.04.221.016.07.102.126.123.2.02.07.154.12.17.194.014.07-.054.172-.053.249.002.074-.106.159-.09.233.013.071.095.127.12.198.023.068.024.153.038.227.117.035.185.15.247.151.06 0 .124-.201.244-.201s.166.01.226-.009c.06-.018.136.075.257.075.12 0 .187-.002.247-.007.06-.004.115-.12.236-.12.11 0 .183.072.241.102.07.036.035-.024.132-.112.09-.083.2-.067.163-.134-.03-.053-.023-.09-.023-.188 0-.11-.039-.154-.023-.209.016-.055.092-.12.092-.23 0-.11-.12-.164-.126-.219-.006-.055-.006-.111-.006-.22 0-.11.058-.164.06-.218 0-.056-.056-.111-.056-.222 0-.11.046-.158.067-.213.022-.055.147-.116.147-.225 0-.11-.085-.206-.118-.26-.033-.056-.166-.07-.166-.18 0-.109.091-.152.105-.207.015-.055.04-.121.04-.231 0-.11-.138-.191-.123-.246.015-.055.093-.083.093-.193s-.068-.135-.087-.19c-.02-.055.087-.139.087-.249 0-.11.024-.178.015-.232-.01-.055-.183-.097-.183-.206 0-.11.037-.188.057-.242.02-.055.1-.087.1-.197 0-.11-.04-.157-.053-.212-.012-.055.034-.117.034-.226 0-.1-.021-.183.007-.24.033-.07.137-.157.053-.243-.08-.081-.206-.177-.272-.167-.058.009-.104.196-.204.196-.108 0-.162-.016-.215-.017-.054 0-.108-.112-.215-.112-.108 0-.163.107-.216.103-.054-.004-.107.045-.214.045s-.198-.115-.251-.089c-.054.026-.071.148-.178.148a.542.542 0 0 1-.227-.041c-.054-.023-.095-.21-.203-.21-.107 0-.16.107-.213.105-.054-.003-.109.012-.216.012a.466.466 0 0 0-.219.05c-.053.024-.103-.076-.21-.076-.108 0-.163.131-.216.138-.054.008-.106.04-.214.04-.107 0-.165-.035-.219-.063-.053-.027-.103-.089-.21-.089s-.16.099-.214.099c-.054 0-.108-.2-.215-.2s-.166.22-.22.217c-.053-.003-.102.003-.21.003-.106 0-.2-.184-.253-.164-.054.02-.068.19-.175.19-.107 0-.136-.141-.19-.158-.054-.016-.132.125-.24.125-.106 0-.183-.197-.236-.188-.054.01-.085.115-.192.115-.108 0-.122.168-.176.185-.054.016-.146.003-.253.003a.573.573 0 0 1-.253-.069c-.054-.027-.07-.163-.176-.163-.108 0-.152.121-.206.127-.054.006-.116-.003-.224-.003-.107 0-.148-.184-.202-.19-.053-.006-.12.157-.227.157-.107 0-.163-.079-.217-.074-.054.005-.105.095-.212.095s-.196-.15-.25-.134c-.054.017-.072.177-.179.177s-.157-.06-.211-.08c-.054-.018-.11-.065-.218-.065-.107 0-.183-.012-.236.005-.054.018-.086.042-.193.042-.107 0-.205.154-.26.134-.053-.02-.062-.286-.169-.286-.107 0-.18.098-.234.117-.053.02-.088.045-.195.045-.107 0-.196.134-.25.116-.053-.017-.071-.257-.179-.257-.107 0-.159.136-.212.146-.054.01-.11.132-.217.132s-.147-.007-.2 0c-.054.006-.121-.182-.229-.182-.107 0-.134.003-.188-.019-.054-.02-.133.083-.24.083-.108 0-.18-.088-.233-.067-.054.02-.089.012-.196.012-.107 0-.16.038-.213.035-.054-.002-.109-.037-.216-.037s-.159.104-.212.107c-.054.004-.11-.004-.217-.004-.097 0-.2.063-.248.044-.058-.022-.063-.15-.145-.065-.082.084-.022.128-.015.185.006.05.015.117.015.22 0 .11-.001.154.014.21.016.054.05.12.05.23 0 .109-.035.183-.059.238-.024.055-.067.09-.067.2 0 .11.09.157.095.212.004.055-.031.117-.031.227s0 .155.008.21c.008.055-.118.12-.118.229 0 .11-.038.188-.027.243.011.054.182.086.182.196 0 .11-.157.128-.179.183-.022.055.025.146.025.256 0 .11.098.157.104.212.006.055-.107.117-.107.226 0 .11.071.163.08.218.01.055.111.111.111.221s-.228.138-.242.193c-.013.054.016.136.016.246 0 .11.044.167.05.222.004.054.112.107.112.216 0 .11-.144.193-.126.248.018.055.013.081.013.19 0 .099.05.157.015.217-.041.073.021.07.111.151.096.087.055.04.13.018.066-.02.176.155.288.155.12 0 .168-.016.229-.005.06.012.133-.04.254-.04.12 0 .2.03.26.009.06-.021.102.026.223.026.12 0 .18-.13.237-.125.06.004.033-.075.15-.11.015-.073.151-.036.157-.098.006-.065.032-.12.047-.191.014-.075-.035-.166.003-.233.04-.069.204-.105.219-.176.015-.074-.107-.173-.118-.25-.01-.08-.083-.173-.067-.243.017-.074.152-.113.18-.18.031-.072.119-.134.136-.204.018-.074.026-.137.052-.204.028-.072-.148-.207-.128-.276.021-.073.027-.132.038-.203.013-.077.286-.086.31-.153.026-.073-.063-.18-.03-.244.036-.07.025-.157.055-.22.034-.072.06-.155.104-.21.048-.06.146-.077.187-.134.046-.062.157-.095.19-.163.035-.073-.069-.266-.01-.31.062-.043.219.053.29.018.07-.034.093-.191.167-.213.07-.022.174.044.256.051.075.007.149.007.226 0 .072-.007.15.014.227 0 .072-.014.144-.155.222-.155.08 0 .17.154.227.133.068-.025.18-.166.24-.092.075.09-.124.163-.17.237-.04.062-.032.184-.032.282 0 .107.165.105.193.158a.648.648 0 0 1 .063.27c0 .107-.206.159-.207.212-.001.054.081.11.081.216 0 .107.013.168-.003.222-.016.053-.162.099-.162.206 0 .106.194.172.187.225-.007.054.007.095.007.202 0 .107-.077.153-.056.206.021.054.021.115.021.221 0 .107-.07.144-.086.197-.016.054.162.124.162.231 0 .107-.197.152-.206.205-.009.054-.004.116-.004.222 0 .107-.047.223-.017.276.03.053.201.045.201.152 0 .106.092.172.087.225-.006.054-.077.095-.077.202 0 .106.06.158.06.211.001.054-.19.109-.19.216s-.066.13-.079.184c-.012.054.127.136.127.243 0 .107-.096.165-.093.218.003.054.08.103.08.21 0 .106-.127.125-.144.178-.017.054.023.142.023.249 0 .106.058.16.059.213 0 .053-.108.107-.108.214s.017.184.03.237c.011.053.223.084.223.19 0 .107-.21.164-.208.217.002.054-.002.104-.002.21 0 .108.198.168.193.222-.004.053-.228.1-.228.206 0 .107.134.16.131.214-.002.053.057.106.057.213s-.103.179-.086.232c.017.053.202.089.202.195 0 .107-.01.174-.016.227-.007.053-.068.094-.068.2 0 .107-.025.158-.017.211.008.054-.102.11-.102.217 0 .1.16.157.165.21.005.059-.105.061-.183.144-.076.08-.064.111-.123.093-.05-.016-.113.02-.206.02-.101 0-.152-.066-.202-.067-.051-.001-.103.142-.205.142s-.155-.119-.206-.126c-.051-.008-.1-.148-.202-.148-.101 0-.149.149-.2.157-.05.007-.105.038-.206.038-.094 0-.118-.194-.177-.215-.07-.024-.133.122-.212.198-.08.076-.25.122-.234.193zm17.551-11.565zm1.387 6.32zm-.694 2.407zm-2.627 1.373zm2.33.188zm-23.23 2.934h.001zm8.39 4.407c.134 0 .26.019.377.057l.03-.013a1.223 1.223 0 0 1 .749-.045 1.26 1.26 0 0 1 .378-.027 1.19 1.19 0 0 1 .389-.094l.077-.002c.121 0 .254.015.389.06a1.285 1.285 0 0 1 .86-.039c.044.006.086.015.127.025.152-.086.305-.127.437-.143.17-.131.342-.19.42-.212l.022-.006c.12-.037.32-.1.56-.1.043 0 .086.003.128.007.144-.138.3-.216.417-.26l.2-.074h.107a1.215 1.215 0 0 1 .306-.101 1.243 1.243 0 0 1 .572-.179c.1-.068.209-.12.324-.156.118-.22.288-.358.438-.444.06-.067.137-.14.236-.208.167-.117.36-.188.565-.21.083-.046.166-.079.242-.102a1.26 1.26 0 0 1 .166-.144c.062-.096.143-.19.248-.275.059-.047.112-.084.15-.109.122-.1.26-.175.41-.223a1.206 1.206 0 0 1 .522-.489l.022-.049c.053-.11.217-.392.562-.56a1.237 1.237 0 0 1 .301-.238.892.892 0 0 1 .049-.056l.004-.012c-.008-.32.108-.564.23-.73.105-.142.224-.241.32-.307.022-.11.063-.297.176-.49.089-.153.199-.265.303-.349.052-.123.135-.263.269-.39a1.155 1.155 0 0 1 .188-.647 1.61 1.61 0 0 1 .197-.423l.005-.007a1.197 1.197 0 0 1 .237-.812.897.897 0 0 1 .014-.104 1.21 1.21 0 0 1 .104-.772 1.184 1.184 0 0 1-.022-.503 1.2 1.2 0 0 1 .103-.327l.005-.046c.033-.247.133-.461.3-.642a1.203 1.203 0 0 1 .074-.707 1.194 1.194 0 0 1-.14-.862 1.18 1.18 0 0 1-.013-.187 1.208 1.208 0 0 1-.01-.797 1.198 1.198 0 0 1-.338-.625l-.004-.02a2.056 2.056 0 0 1-.055-.519c.004-.09.017-.177.04-.26a1.186 1.186 0 0 1-.008-.086 1.17 1.17 0 0 1-.062-.334 1.195 1.195 0 0 1-.16-.31 1.88 1.88 0 0 1-.082-.364 1.211 1.211 0 0 1-.054-.167 1.114 1.114 0 0 1-.317-.44 1.182 1.182 0 0 1-.31-.387 1.122 1.122 0 0 1-.081-.838 1.185 1.185 0 0 1-.12-.11 1.505 1.505 0 0 1-.263-.268 1.27 1.27 0 0 1-.702-.74 1.187 1.187 0 0 1-.598-.932 1.18 1.18 0 0 1-.158-.17 1.19 1.19 0 0 1-.615-.3c-.103-.096-.251-.26-.392-.605a1.203 1.203 0 0 1-.302-.435 1.202 1.202 0 0 1-.36-.184 1.215 1.215 0 0 1-.334-.155 1.366 1.366 0 0 1-.343-.328c-.061.01-.125.015-.192.015h-.294l-.269-.14a1.198 1.198 0 0 1-.392-.329 1.182 1.182 0 0 1-.285-.166 1.185 1.185 0 0 1-.519-.307 1.241 1.241 0 0 1-.555-.051 1.185 1.185 0 0 1-.505-.329 1.264 1.264 0 0 1-.234-.09 1.368 1.368 0 0 1-.6-.113l-.066.017c-.095.04-.217.077-.361.092l-.01.002a1.874 1.874 0 0 1-.352.038 1.255 1.255 0 0 1-.759-.243 1.494 1.494 0 0 1-.17 0h-.025a1.876 1.876 0 0 1-.489-.059 1.246 1.246 0 0 1-1.016-.082l-.018-.002a1.329 1.329 0 0 1-.05.004l-.075.003-.087-.003a1.22 1.22 0 0 1-.16.062c-.19.175-.411.254-.606.286a1.254 1.254 0 0 1-.671-.075l-.076.015h-.054a1.353 1.353 0 0 1-.786.263c-.093 0-.186-.01-.276-.031-.145.138-.43.384-.865.416a1.294 1.294 0 0 1-.298.046c-.196.191-.453.31-.73.337a1.28 1.28 0 0 1-.495.389c-.084.089-.19.186-.321.267a1.265 1.265 0 0 1-.51.176 1.23 1.23 0 0 1-.822.553 1.266 1.266 0 0 1-.758.468c-.013.234-.09.506-.324.752-.15.158-.336.27-.544.33-.03.192-.107.348-.184.463a1.87 1.87 0 0 1-.088.156 1.186 1.186 0 0 1-.413.394.886.886 0 0 1-.045.055 1.179 1.179 0 0 1-.168.425c-.05.08-.11.154-.177.218a1.238 1.238 0 0 1-.098.242 1.182 1.182 0 0 1-.173.43 1.169 1.169 0 0 1-.317.66c-.017.04-.035.08-.054.115-.009.05-.02.101-.037.153a1.15 1.15 0 0 1-.322.52 1.225 1.225 0 0 1-.468.681c.025.14.031.31-.012.495a7.632 7.632 0 0 0-.053.234 1.172 1.172 0 0 1-.047.505 1.184 1.184 0 0 1-.072.77 1.24 1.24 0 0 1-.058.902 1.186 1.186 0 0 1 .01.583 1.22 1.22 0 0 1-.053.545c.256.229.341.512.367.71.017.128.035.47-.185.8l.002.014c.024.12.04.295-.004.493.075.092.186.257.241.477.05.067.089.135.12.204.226.134.403.338.5.591a1.14 1.14 0 0 1-.017.878c.024.057.044.114.06.171.186.12.31.272.39.412l.007.012c.035.052.086.127.134.225l.06.06a1.4 1.4 0 0 1 .308.342c.102.163.163.338.18.523l.03.03c.076.057.182.146.283.28.117.155.192.326.223.511.119.085.22.192.302.317.148.077.254.171.32.242.051.053.223.242.34.464a1.2 1.2 0 0 1 .079.181 1.2 1.2 0 0 1 .345.193 1.23 1.23 0 0 1 .44.256c.134.026.262.075.38.144.06.028.168.078.283.16.183.13.315.288.398.474.029.016.057.034.084.052a1.214 1.214 0 0 1 .887.551c.15.078.29.188.417.33.053.045.101.093.146.146.05.028.1.059.145.092l.076-.004a1.285 1.285 0 0 1 .63.027 1.2 1.2 0 0 1 .466.259 1.226 1.226 0 0 1 .436.175c.148-.007.299.005.444.036a1.31 1.31 0 0 1 .66.083c.052-.007.107-.01.164-.01h.069l.072.007c.146.017.307.059.463.148l.054-.013h.144zm1.846 2.748c-.17 0-.312-.031-.401-.053a1.212 1.212 0 0 1-.514-.182c-.2.138-.425.208-.676.208l-.079-.003a1.17 1.17 0 0 1-.524-.156 1.24 1.24 0 0 1-.274.03h-.077l-.082-.01a1.239 1.239 0 0 1-.349-.096 1.269 1.269 0 0 1-.14.007h-.075l-.079-.009a1.168 1.168 0 0 1-.634-.276 1.23 1.23 0 0 1-.332.035 1.73 1.73 0 0 1-.229.016 1.293 1.293 0 0 1-.921-.37 1.258 1.258 0 0 1-.262-.112 1.93 1.93 0 0 1-.217.013c-.19 0-.36-.032-.522-.098-.275-.113-.492-.328-.633-.504a1.214 1.214 0 0 1-.312-.234 1.234 1.234 0 0 1-.545-.313 1.547 1.547 0 0 1-.567-.205 1.213 1.213 0 0 1-.38-.372 1.204 1.204 0 0 1-.404-.317 1.23 1.23 0 0 1-.821-.48 1.194 1.194 0 0 1-.778-.442 1.227 1.227 0 0 1-.255-.596l-.008-.025a1.23 1.23 0 0 1-.767-.398 1.181 1.181 0 0 1-.274-.535 1.347 1.347 0 0 1-.313-.487l-.005-.016a1.184 1.184 0 0 1-.258-.215 1.13 1.13 0 0 1-.302-.792 1.184 1.184 0 0 1-.47-.606 1.185 1.185 0 0 1-.525-.532 1.353 1.353 0 0 1-.128-.408 1.11 1.11 0 0 1-.04-.458 1.26 1.26 0 0 1-.028-.06l-.002-.003a1.663 1.663 0 0 1-.159-.438 1.446 1.446 0 0 1-.178-.468 1.17 1.17 0 0 1-.283-.653 1.146 1.146 0 0 1-.243-.473 1.274 1.274 0 0 1-.025-.896 1.132 1.132 0 0 1-.025-.14 1.174 1.174 0 0 1-.073-.843 1.424 1.424 0 0 1 .001-.339 1.16 1.16 0 0 1-.19-.596 1.157 1.157 0 0 1 .095-.527 1.183 1.183 0 0 1-.017-1.203 1.31 1.31 0 0 1 .123-.533 1.164 1.164 0 0 1-.008-.026 1.315 1.315 0 0 1-.13-.8 1.14 1.14 0 0 1 .297-.61 1.16 1.16 0 0 1 .075-.167 1.192 1.192 0 0 1-.029-.43 1.37 1.37 0 0 1 .173-.721c.09-.157.21-.286.355-.387.004-.13.03-.257.078-.382.085-.223.218-.4.396-.53l.003-.014a1.174 1.174 0 0 1 .45-1.224l.012-.057a1.3 1.3 0 0 1 .313-.772 1.257 1.257 0 0 1 .546-.61 1.225 1.225 0 0 1 .293-.345c.064-.17.178-.366.384-.527.123-.217.285-.354.405-.436.055-.058.13-.128.226-.195.03-.053.062-.102.096-.146.064-.166.157-.313.256-.436.064-.165.182-.375.41-.55.122-.093.241-.15.323-.184.177-.101.38-.157.587-.16a1.309 1.309 0 0 1 .204-.163c.076-.44.38-.684.508-.768a1.2 1.2 0 0 1 .501-.189c.123-.152.261-.245.34-.29l.272-.156.324-.002c.032 0 .063 0 .094.003a1.2 1.2 0 0 1 .057-.03 1.21 1.21 0 0 1 1.05-.59c.047 0 .092.003.135.008.1-.074.203-.127.295-.161l.2-.075.22-.001h.021a1.2 1.2 0 0 1 .52-.181c.074-.009.152-.01.223-.006.113-.035.24-.058.385-.064a.902.902 0 0 1 .032-.004 1.217 1.217 0 0 1 .86-.22c.099-.025.19-.036.265-.04.175-.124.366-.18.538-.203l.1-.01c.247-.185.508-.236.718-.236.195 0 .428.042.65.188a1.283 1.283 0 0 1 .803-.052c.192.02.343.078.44.123.107.032.226.084.342.165.08-.005.17-.003.231.003.223 0 .43.056.618.164l.052-.015a1.3 1.3 0 0 1 .82-.117c.178.035.324.103.435.17.248.002.443.072.532.105.073.022.14.05.2.08l.06-.001a1.298 1.298 0 0 1 .655.174c.069.01.136.024.202.045.164.001.462.02.717.125.192.078.401.215.55.456a1.2 1.2 0 0 1 .1.074c.102.016.201.043.295.083h.02l.102.017c.094.015.235.051.383.133.19.014.372.072.534.17l.008.004c.044.022.11.054.188.102.167.103.342.26.452.495a1.199 1.199 0 0 1 1.012.711l.023.019c.08.064.231.208.334.428l.034.034a1.148 1.148 0 0 1 .781.759 1.2 1.2 0 0 1 .524.448l.014.015c.04.042.097.099.156.171.213.064.443.186.63.426.236.302.304.65.205 1.039.19.08.333.184.44.296a1.23 1.23 0 0 1 .344.432c.07.093.138.198.203.318.125.23.153.454.147.637.06.104.098.205.123.293.104.1.197.228.266.393.024.057.042.11.056.16.073.166.122.378.09.628.127.17.188.348.216.5l.018.056.006.021.02.072a1.115 1.115 0 0 1 .198.518 1.19 1.19 0 0 1 .094.905l.03.085c.129.218.169.429.172.601l.007.034c.026.086.072.246.072.446 0 .114-.015.224-.045.329.133.249.144.49.13.65v.005c.038.124.06.24.07.332.02.063.043.149.056.251a1.242 1.242 0 0 1-.03.83c.078.196.09.386.074.544-.02.203-.103.51-.392.763l.006.057c.022.306-.074.544-.129.67a1.15 1.15 0 0 1-.26.449c.045.224.02.42-.027.572a1.187 1.187 0 0 1-.546 1.381c.017.134.012.266-.017.395a1.43 1.43 0 0 1-.055.297 1.324 1.324 0 0 1-.152.467 1.205 1.205 0 0 1-.368.711c-.01.237-.099.432-.184.567-.202.32-.495.46-.685.526a1.167 1.167 0 0 1-.242.588 1.18 1.18 0 0 1-.464.363c-.054.056-.11.104-.168.144a.662.662 0 0 1-.015.022 1.174 1.174 0 0 1-.3.553c-.159.168-.341.268-.45.329l-.026.014c-.044.027-.089.05-.135.07-.185.341-.48.504-.624.58a1.212 1.212 0 0 1-.195.106c-.086.15-.195.26-.307.343a1.199 1.199 0 0 1-1.2.703 1.115 1.115 0 0 1-.466.48 1.243 1.243 0 0 1-.438.151 1.232 1.232 0 0 1-.3.118 1.251 1.251 0 0 1-.531.207 1.247 1.247 0 0 1-.32.178 1.175 1.175 0 0 1-.61.326l-.116.024h-.08a.945.945 0 0 1-.077.042 1.176 1.176 0 0 1-.583.384l-.166.05h-.177c-.044.003-.082-.001-.121-.005-.15.079-.322.15-.478.185l-.13.03-.139.001a1.25 1.25 0 0 1-.234-.021 1.285 1.285 0 0 1-.286.02 1.274 1.274 0 0 1-.18.042l-.094.016h-.1c-.168 0-.315-.032-.442-.083-.127.09-.258.144-.384.175a1.268 1.268 0 0 1-.669.183z" fill="#000" fill-rule="nonzero" mask="url(#d)"/></g></g></svg>